%TF.GenerationSoftware,KiCad,Pcbnew,6.0.8-f2edbf62ab~116~ubuntu20.04.1*%
%TF.CreationDate,2022-10-28T14:46:09-03:00*%
%TF.ProjectId,+puntosV2,2b70756e-746f-4735-9632-2e6b69636164,rev?*%
%TF.SameCoordinates,Original*%
%TF.FileFunction,Legend,Top*%
%TF.FilePolarity,Positive*%
%FSLAX46Y46*%
G04 Gerber Fmt 4.6, Leading zero omitted, Abs format (unit mm)*
G04 Created by KiCad (PCBNEW 6.0.8-f2edbf62ab~116~ubuntu20.04.1) date 2022-10-28 14:46:09*
%MOMM*%
%LPD*%
G01*
G04 APERTURE LIST*
%ADD10C,0.300000*%
%ADD11C,0.100000*%
%ADD12C,0.150000*%
%ADD13C,0.120000*%
G04 APERTURE END LIST*
D10*
X81571428Y-81178571D02*
X80714285Y-81178571D01*
X81142857Y-81178571D02*
X81142857Y-79678571D01*
X81000000Y-79892857D01*
X80857142Y-80035714D01*
X80714285Y-80107142D01*
X82142857Y-79821428D02*
X82214285Y-79750000D01*
X82357142Y-79678571D01*
X82714285Y-79678571D01*
X82857142Y-79750000D01*
X82928571Y-79821428D01*
X83000000Y-79964285D01*
X83000000Y-80107142D01*
X82928571Y-80321428D01*
X82071428Y-81178571D01*
X83000000Y-81178571D01*
X83428571Y-79678571D02*
X83928571Y-81178571D01*
X84428571Y-79678571D01*
X96571428Y-91678571D02*
X96857142Y-91678571D01*
X97000000Y-91750000D01*
X97142857Y-91892857D01*
X97214285Y-92178571D01*
X97214285Y-92678571D01*
X97142857Y-92964285D01*
X97000000Y-93107142D01*
X96857142Y-93178571D01*
X96571428Y-93178571D01*
X96428571Y-93107142D01*
X96285714Y-92964285D01*
X96214285Y-92678571D01*
X96214285Y-92178571D01*
X96285714Y-91892857D01*
X96428571Y-91750000D01*
X96571428Y-91678571D01*
X98357142Y-92392857D02*
X97857142Y-92392857D01*
X97857142Y-93178571D02*
X97857142Y-91678571D01*
X98571428Y-91678571D01*
X99642857Y-92392857D02*
X99142857Y-92392857D01*
X99142857Y-93178571D02*
X99142857Y-91678571D01*
X99857142Y-91678571D01*
X132251785Y-86535714D02*
X132180357Y-86607142D01*
X131966071Y-86678571D01*
X131823214Y-86678571D01*
X131608928Y-86607142D01*
X131466071Y-86464285D01*
X131394642Y-86321428D01*
X131323214Y-86035714D01*
X131323214Y-85821428D01*
X131394642Y-85535714D01*
X131466071Y-85392857D01*
X131608928Y-85250000D01*
X131823214Y-85178571D01*
X131966071Y-85178571D01*
X132180357Y-85250000D01*
X132251785Y-85321428D01*
X133180357Y-85178571D02*
X133466071Y-85178571D01*
X133608928Y-85250000D01*
X133751785Y-85392857D01*
X133823214Y-85678571D01*
X133823214Y-86178571D01*
X133751785Y-86464285D01*
X133608928Y-86607142D01*
X133466071Y-86678571D01*
X133180357Y-86678571D01*
X133037500Y-86607142D01*
X132894642Y-86464285D01*
X132823214Y-86178571D01*
X132823214Y-85678571D01*
X132894642Y-85392857D01*
X133037500Y-85250000D01*
X133180357Y-85178571D01*
X135180357Y-86678571D02*
X134466071Y-86678571D01*
X134466071Y-85178571D01*
X136394642Y-86678571D02*
X135680357Y-86678571D01*
X135680357Y-85178571D01*
X136894642Y-85892857D02*
X137394642Y-85892857D01*
X137608928Y-86678571D02*
X136894642Y-86678571D01*
X136894642Y-85178571D01*
X137608928Y-85178571D01*
X139108928Y-86535714D02*
X139037500Y-86607142D01*
X138823214Y-86678571D01*
X138680357Y-86678571D01*
X138466071Y-86607142D01*
X138323214Y-86464285D01*
X138251785Y-86321428D01*
X138180357Y-86035714D01*
X138180357Y-85821428D01*
X138251785Y-85535714D01*
X138323214Y-85392857D01*
X138466071Y-85250000D01*
X138680357Y-85178571D01*
X138823214Y-85178571D01*
X139037500Y-85250000D01*
X139108928Y-85321428D01*
X139537500Y-85178571D02*
X140394642Y-85178571D01*
X139966071Y-86678571D02*
X139966071Y-85178571D01*
X97071428Y-75642857D02*
X97285714Y-75714285D01*
X97357142Y-75785714D01*
X97428571Y-75928571D01*
X97428571Y-76142857D01*
X97357142Y-76285714D01*
X97285714Y-76357142D01*
X97142857Y-76428571D01*
X96571428Y-76428571D01*
X96571428Y-74928571D01*
X97071428Y-74928571D01*
X97214285Y-75000000D01*
X97285714Y-75071428D01*
X97357142Y-75214285D01*
X97357142Y-75357142D01*
X97285714Y-75500000D01*
X97214285Y-75571428D01*
X97071428Y-75642857D01*
X96571428Y-75642857D01*
X98000000Y-76000000D02*
X98714285Y-76000000D01*
X97857142Y-76428571D02*
X98357142Y-74928571D01*
X98857142Y-76428571D01*
X99142857Y-74928571D02*
X100000000Y-74928571D01*
X99571428Y-76428571D02*
X99571428Y-74928571D01*
X100285714Y-74928571D02*
X101142857Y-74928571D01*
X100714285Y-76428571D02*
X100714285Y-74928571D01*
X86964285Y-74928571D02*
X86250000Y-74928571D01*
X86178571Y-75642857D01*
X86250000Y-75571428D01*
X86392857Y-75500000D01*
X86750000Y-75500000D01*
X86892857Y-75571428D01*
X86964285Y-75642857D01*
X87035714Y-75785714D01*
X87035714Y-76142857D01*
X86964285Y-76285714D01*
X86892857Y-76357142D01*
X86750000Y-76428571D01*
X86392857Y-76428571D01*
X86250000Y-76357142D01*
X86178571Y-76285714D01*
X87464285Y-74928571D02*
X87964285Y-76428571D01*
X88464285Y-74928571D01*
X82142857Y-53107142D02*
X82357142Y-53178571D01*
X82714285Y-53178571D01*
X82857142Y-53107142D01*
X82928571Y-53035714D01*
X83000000Y-52892857D01*
X83000000Y-52750000D01*
X82928571Y-52607142D01*
X82857142Y-52535714D01*
X82714285Y-52464285D01*
X82428571Y-52392857D01*
X82285714Y-52321428D01*
X82214285Y-52250000D01*
X82142857Y-52107142D01*
X82142857Y-51964285D01*
X82214285Y-51821428D01*
X82285714Y-51750000D01*
X82428571Y-51678571D01*
X82785714Y-51678571D01*
X83000000Y-51750000D01*
X83428571Y-51678571D02*
X84285714Y-51678571D01*
X83857142Y-53178571D02*
X83857142Y-51678571D01*
X84785714Y-53178571D02*
X84785714Y-51678571D01*
X85285714Y-52750000D01*
X85785714Y-51678571D01*
X85785714Y-53178571D01*
X86357142Y-51678571D02*
X87285714Y-51678571D01*
X86785714Y-52250000D01*
X87000000Y-52250000D01*
X87142857Y-52321428D01*
X87214285Y-52392857D01*
X87285714Y-52535714D01*
X87285714Y-52892857D01*
X87214285Y-53035714D01*
X87142857Y-53107142D01*
X87000000Y-53178571D01*
X86571428Y-53178571D01*
X86428571Y-53107142D01*
X86357142Y-53035714D01*
X87857142Y-51821428D02*
X87928571Y-51750000D01*
X88071428Y-51678571D01*
X88428571Y-51678571D01*
X88571428Y-51750000D01*
X88642857Y-51821428D01*
X88714285Y-51964285D01*
X88714285Y-52107142D01*
X88642857Y-52321428D01*
X87785714Y-53178571D01*
X88714285Y-53178571D01*
X89857142Y-52392857D02*
X89357142Y-52392857D01*
X89357142Y-53178571D02*
X89357142Y-51678571D01*
X90071428Y-51678571D01*
X91285714Y-52178571D02*
X91285714Y-53178571D01*
X90928571Y-51607142D02*
X90571428Y-52678571D01*
X91500000Y-52678571D01*
X91928571Y-51678571D02*
X92928571Y-53178571D01*
X92928571Y-51678571D02*
X91928571Y-53178571D01*
X93357142Y-51678571D02*
X94357142Y-53178571D01*
X94357142Y-51678571D02*
X93357142Y-53178571D01*
X94571428Y-53321428D02*
X95714285Y-53321428D01*
X96571428Y-52392857D02*
X96785714Y-52464285D01*
X96857142Y-52535714D01*
X96928571Y-52678571D01*
X96928571Y-52892857D01*
X96857142Y-53035714D01*
X96785714Y-53107142D01*
X96642857Y-53178571D01*
X96071428Y-53178571D01*
X96071428Y-51678571D01*
X96571428Y-51678571D01*
X96714285Y-51750000D01*
X96785714Y-51821428D01*
X96857142Y-51964285D01*
X96857142Y-52107142D01*
X96785714Y-52250000D01*
X96714285Y-52321428D01*
X96571428Y-52392857D01*
X96071428Y-52392857D01*
X97785714Y-53178571D02*
X97642857Y-53107142D01*
X97571428Y-52964285D01*
X97571428Y-51678571D01*
X99000000Y-53178571D02*
X99000000Y-52392857D01*
X98928571Y-52250000D01*
X98785714Y-52178571D01*
X98500000Y-52178571D01*
X98357142Y-52250000D01*
X99000000Y-53107142D02*
X98857142Y-53178571D01*
X98500000Y-53178571D01*
X98357142Y-53107142D01*
X98285714Y-52964285D01*
X98285714Y-52821428D01*
X98357142Y-52678571D01*
X98500000Y-52607142D01*
X98857142Y-52607142D01*
X99000000Y-52535714D01*
X100357142Y-53107142D02*
X100214285Y-53178571D01*
X99928571Y-53178571D01*
X99785714Y-53107142D01*
X99714285Y-53035714D01*
X99642857Y-52892857D01*
X99642857Y-52464285D01*
X99714285Y-52321428D01*
X99785714Y-52250000D01*
X99928571Y-52178571D01*
X100214285Y-52178571D01*
X100357142Y-52250000D01*
X101000000Y-53178571D02*
X101000000Y-51678571D01*
X101142857Y-52607142D02*
X101571428Y-53178571D01*
X101571428Y-52178571D02*
X101000000Y-52750000D01*
X102214285Y-53178571D02*
X102214285Y-51678571D01*
X102785714Y-51678571D01*
X102928571Y-51750000D01*
X103000000Y-51821428D01*
X103071428Y-51964285D01*
X103071428Y-52178571D01*
X103000000Y-52321428D01*
X102928571Y-52392857D01*
X102785714Y-52464285D01*
X102214285Y-52464285D01*
X103714285Y-53178571D02*
X103714285Y-52178571D01*
X103714285Y-51678571D02*
X103642857Y-51750000D01*
X103714285Y-51821428D01*
X103785714Y-51750000D01*
X103714285Y-51678571D01*
X103714285Y-51821428D01*
X104642857Y-53178571D02*
X104500000Y-53107142D01*
X104428571Y-52964285D01*
X104428571Y-51678571D01*
X105428571Y-53178571D02*
X105285714Y-53107142D01*
X105214285Y-52964285D01*
X105214285Y-51678571D01*
X138714285Y-74928571D02*
X138714285Y-73428571D01*
X139428571Y-74928571D02*
X139428571Y-73428571D01*
X140285714Y-74928571D01*
X140285714Y-73428571D01*
X117535714Y-80678571D02*
X117535714Y-79178571D01*
X118250000Y-80678571D02*
X118250000Y-79178571D01*
X119107142Y-80678571D01*
X119107142Y-79178571D01*
X120892857Y-79107142D02*
X119607142Y-81035714D01*
X121678571Y-79178571D02*
X121964285Y-79178571D01*
X122107142Y-79250000D01*
X122250000Y-79392857D01*
X122321428Y-79678571D01*
X122321428Y-80178571D01*
X122250000Y-80464285D01*
X122107142Y-80607142D01*
X121964285Y-80678571D01*
X121678571Y-80678571D01*
X121535714Y-80607142D01*
X121392857Y-80464285D01*
X121321428Y-80178571D01*
X121321428Y-79678571D01*
X121392857Y-79392857D01*
X121535714Y-79250000D01*
X121678571Y-79178571D01*
X122964285Y-79178571D02*
X122964285Y-80392857D01*
X123035714Y-80535714D01*
X123107142Y-80607142D01*
X123250000Y-80678571D01*
X123535714Y-80678571D01*
X123678571Y-80607142D01*
X123750000Y-80535714D01*
X123821428Y-80392857D01*
X123821428Y-79178571D01*
X124321428Y-79178571D02*
X125178571Y-79178571D01*
X124750000Y-80678571D02*
X124750000Y-79178571D01*
X77714285Y-79678571D02*
X77000000Y-79678571D01*
X76928571Y-80392857D01*
X77000000Y-80321428D01*
X77142857Y-80250000D01*
X77500000Y-80250000D01*
X77642857Y-80321428D01*
X77714285Y-80392857D01*
X77785714Y-80535714D01*
X77785714Y-80892857D01*
X77714285Y-81035714D01*
X77642857Y-81107142D01*
X77500000Y-81178571D01*
X77142857Y-81178571D01*
X77000000Y-81107142D01*
X76928571Y-81035714D01*
X78214285Y-79678571D02*
X78714285Y-81178571D01*
X79214285Y-79678571D01*
X137000000Y-77178571D02*
X137285714Y-77178571D01*
X137428571Y-77250000D01*
X137571428Y-77392857D01*
X137642857Y-77678571D01*
X137642857Y-78178571D01*
X137571428Y-78464285D01*
X137428571Y-78607142D01*
X137285714Y-78678571D01*
X137000000Y-78678571D01*
X136857142Y-78607142D01*
X136714285Y-78464285D01*
X136642857Y-78178571D01*
X136642857Y-77678571D01*
X136714285Y-77392857D01*
X136857142Y-77250000D01*
X137000000Y-77178571D01*
X138285714Y-77178571D02*
X138285714Y-78392857D01*
X138357142Y-78535714D01*
X138428571Y-78607142D01*
X138571428Y-78678571D01*
X138857142Y-78678571D01*
X139000000Y-78607142D01*
X139071428Y-78535714D01*
X139142857Y-78392857D01*
X139142857Y-77178571D01*
X139642857Y-77178571D02*
X140500000Y-77178571D01*
X140071428Y-78678571D02*
X140071428Y-77178571D01*
X86821428Y-91678571D02*
X87107142Y-91678571D01*
X87250000Y-91750000D01*
X87392857Y-91892857D01*
X87464285Y-92178571D01*
X87464285Y-92678571D01*
X87392857Y-92964285D01*
X87250000Y-93107142D01*
X87107142Y-93178571D01*
X86821428Y-93178571D01*
X86678571Y-93107142D01*
X86535714Y-92964285D01*
X86464285Y-92678571D01*
X86464285Y-92178571D01*
X86535714Y-91892857D01*
X86678571Y-91750000D01*
X86821428Y-91678571D01*
X88107142Y-93178571D02*
X88107142Y-91678571D01*
X88964285Y-93178571D01*
X88964285Y-91678571D01*
X134071428Y-82678571D02*
X134071428Y-81178571D01*
X134642857Y-81178571D01*
X134785714Y-81250000D01*
X134857142Y-81321428D01*
X134928571Y-81464285D01*
X134928571Y-81678571D01*
X134857142Y-81821428D01*
X134785714Y-81892857D01*
X134642857Y-81964285D01*
X134071428Y-81964285D01*
X135571428Y-81178571D02*
X135571428Y-82392857D01*
X135642857Y-82535714D01*
X135714285Y-82607142D01*
X135857142Y-82678571D01*
X136142857Y-82678571D01*
X136285714Y-82607142D01*
X136357142Y-82535714D01*
X136428571Y-82392857D01*
X136428571Y-81178571D01*
X137857142Y-82678571D02*
X137142857Y-82678571D01*
X137142857Y-81178571D01*
X138285714Y-82607142D02*
X138500000Y-82678571D01*
X138857142Y-82678571D01*
X139000000Y-82607142D01*
X139071428Y-82535714D01*
X139142857Y-82392857D01*
X139142857Y-82250000D01*
X139071428Y-82107142D01*
X139000000Y-82035714D01*
X138857142Y-81964285D01*
X138571428Y-81892857D01*
X138428571Y-81821428D01*
X138357142Y-81750000D01*
X138285714Y-81607142D01*
X138285714Y-81464285D01*
X138357142Y-81321428D01*
X138428571Y-81250000D01*
X138571428Y-81178571D01*
X138928571Y-81178571D01*
X139142857Y-81250000D01*
X139785714Y-81892857D02*
X140285714Y-81892857D01*
X140500000Y-82678571D02*
X139785714Y-82678571D01*
X139785714Y-81178571D01*
X140500000Y-81178571D01*
X133035714Y-38857142D02*
X133250000Y-38928571D01*
X133607142Y-38928571D01*
X133750000Y-38857142D01*
X133821428Y-38785714D01*
X133892857Y-38642857D01*
X133892857Y-38500000D01*
X133821428Y-38357142D01*
X133750000Y-38285714D01*
X133607142Y-38214285D01*
X133321428Y-38142857D01*
X133178571Y-38071428D01*
X133107142Y-38000000D01*
X133035714Y-37857142D01*
X133035714Y-37714285D01*
X133107142Y-37571428D01*
X133178571Y-37500000D01*
X133321428Y-37428571D01*
X133678571Y-37428571D01*
X133892857Y-37500000D01*
X134321428Y-37428571D02*
X135178571Y-37428571D01*
X134750000Y-38928571D02*
X134750000Y-37428571D01*
X135607142Y-38500000D02*
X136321428Y-38500000D01*
X135464285Y-38928571D02*
X135964285Y-37428571D01*
X136464285Y-38928571D01*
X136750000Y-37428571D02*
X137607142Y-37428571D01*
X137178571Y-38928571D02*
X137178571Y-37428571D01*
X138107142Y-37428571D02*
X138107142Y-38642857D01*
X138178571Y-38785714D01*
X138250000Y-38857142D01*
X138392857Y-38928571D01*
X138678571Y-38928571D01*
X138821428Y-38857142D01*
X138892857Y-38785714D01*
X138964285Y-38642857D01*
X138964285Y-37428571D01*
X139607142Y-38857142D02*
X139821428Y-38928571D01*
X140178571Y-38928571D01*
X140321428Y-38857142D01*
X140392857Y-38785714D01*
X140464285Y-38642857D01*
X140464285Y-38500000D01*
X140392857Y-38357142D01*
X140321428Y-38285714D01*
X140178571Y-38214285D01*
X139892857Y-38142857D01*
X139750000Y-38071428D01*
X139678571Y-38000000D01*
X139607142Y-37857142D01*
X139607142Y-37714285D01*
X139678571Y-37571428D01*
X139750000Y-37500000D01*
X139892857Y-37428571D01*
X140250000Y-37428571D01*
X140464285Y-37500000D01*
X48857142Y-81035714D02*
X48785714Y-81107142D01*
X48571428Y-81178571D01*
X48428571Y-81178571D01*
X48214285Y-81107142D01*
X48071428Y-80964285D01*
X48000000Y-80821428D01*
X47928571Y-80535714D01*
X47928571Y-80321428D01*
X48000000Y-80035714D01*
X48071428Y-79892857D01*
X48214285Y-79750000D01*
X48428571Y-79678571D01*
X48571428Y-79678571D01*
X48785714Y-79750000D01*
X48857142Y-79821428D01*
X50357142Y-81178571D02*
X49857142Y-80464285D01*
X49500000Y-81178571D02*
X49500000Y-79678571D01*
X50071428Y-79678571D01*
X50214285Y-79750000D01*
X50285714Y-79821428D01*
X50357142Y-79964285D01*
X50357142Y-80178571D01*
X50285714Y-80321428D01*
X50214285Y-80392857D01*
X50071428Y-80464285D01*
X49500000Y-80464285D01*
X51785714Y-81178571D02*
X50928571Y-81178571D01*
X51357142Y-81178571D02*
X51357142Y-79678571D01*
X51214285Y-79892857D01*
X51071428Y-80035714D01*
X50928571Y-80107142D01*
X52357142Y-79821428D02*
X52428571Y-79750000D01*
X52571428Y-79678571D01*
X52928571Y-79678571D01*
X53071428Y-79750000D01*
X53142857Y-79821428D01*
X53214285Y-79964285D01*
X53214285Y-80107142D01*
X53142857Y-80321428D01*
X52285714Y-81178571D01*
X53214285Y-81178571D01*
X53785714Y-79821428D02*
X53857142Y-79750000D01*
X54000000Y-79678571D01*
X54357142Y-79678571D01*
X54500000Y-79750000D01*
X54571428Y-79821428D01*
X54642857Y-79964285D01*
X54642857Y-80107142D01*
X54571428Y-80321428D01*
X53714285Y-81178571D01*
X54642857Y-81178571D01*
X55571428Y-79678571D02*
X55714285Y-79678571D01*
X55857142Y-79750000D01*
X55928571Y-79821428D01*
X56000000Y-79964285D01*
X56071428Y-80250000D01*
X56071428Y-80607142D01*
X56000000Y-80892857D01*
X55928571Y-81035714D01*
X55857142Y-81107142D01*
X55714285Y-81178571D01*
X55571428Y-81178571D01*
X55428571Y-81107142D01*
X55357142Y-81035714D01*
X55285714Y-80892857D01*
X55214285Y-80607142D01*
X55214285Y-80250000D01*
X55285714Y-79964285D01*
X55357142Y-79821428D01*
X55428571Y-79750000D01*
X55571428Y-79678571D01*
X49071428Y-59357142D02*
X47571428Y-59714285D01*
X48642857Y-60000000D01*
X47571428Y-60285714D01*
X49071428Y-60642857D01*
X47571428Y-61214285D02*
X49071428Y-61214285D01*
X49071428Y-61785714D02*
X49071428Y-62785714D01*
X47571428Y-61785714D01*
X47571428Y-62785714D01*
X48428571Y-63571428D02*
X48500000Y-63428571D01*
X48571428Y-63357142D01*
X48714285Y-63285714D01*
X48785714Y-63285714D01*
X48928571Y-63357142D01*
X49000000Y-63428571D01*
X49071428Y-63571428D01*
X49071428Y-63857142D01*
X49000000Y-64000000D01*
X48928571Y-64071428D01*
X48785714Y-64142857D01*
X48714285Y-64142857D01*
X48571428Y-64071428D01*
X48500000Y-64000000D01*
X48428571Y-63857142D01*
X48428571Y-63571428D01*
X48357142Y-63428571D01*
X48285714Y-63357142D01*
X48142857Y-63285714D01*
X47857142Y-63285714D01*
X47714285Y-63357142D01*
X47642857Y-63428571D01*
X47571428Y-63571428D01*
X47571428Y-63857142D01*
X47642857Y-64000000D01*
X47714285Y-64071428D01*
X47857142Y-64142857D01*
X48142857Y-64142857D01*
X48285714Y-64071428D01*
X48357142Y-64000000D01*
X48428571Y-63857142D01*
X49071428Y-65500000D02*
X49071428Y-64785714D01*
X48357142Y-64714285D01*
X48428571Y-64785714D01*
X48500000Y-64928571D01*
X48500000Y-65285714D01*
X48428571Y-65428571D01*
X48357142Y-65500000D01*
X48214285Y-65571428D01*
X47857142Y-65571428D01*
X47714285Y-65500000D01*
X47642857Y-65428571D01*
X47571428Y-65285714D01*
X47571428Y-64928571D01*
X47642857Y-64785714D01*
X47714285Y-64714285D01*
X49071428Y-66500000D02*
X49071428Y-66642857D01*
X49000000Y-66785714D01*
X48928571Y-66857142D01*
X48785714Y-66928571D01*
X48500000Y-67000000D01*
X48142857Y-67000000D01*
X47857142Y-66928571D01*
X47714285Y-66857142D01*
X47642857Y-66785714D01*
X47571428Y-66642857D01*
X47571428Y-66500000D01*
X47642857Y-66357142D01*
X47714285Y-66285714D01*
X47857142Y-66214285D01*
X48142857Y-66142857D01*
X48500000Y-66142857D01*
X48785714Y-66214285D01*
X48928571Y-66285714D01*
X49000000Y-66357142D01*
X49071428Y-66500000D01*
X47571428Y-67642857D02*
X48571428Y-67642857D01*
X49071428Y-67642857D02*
X49000000Y-67571428D01*
X48928571Y-67642857D01*
X49000000Y-67714285D01*
X49071428Y-67642857D01*
X48928571Y-67642857D01*
X47571428Y-68571428D02*
X47642857Y-68428571D01*
X47714285Y-68357142D01*
X47857142Y-68285714D01*
X48285714Y-68285714D01*
X48428571Y-68357142D01*
X48500000Y-68428571D01*
X48571428Y-68571428D01*
X48571428Y-68785714D01*
X48500000Y-68928571D01*
X48428571Y-69000000D01*
X48285714Y-69071428D01*
X47857142Y-69071428D01*
X47714285Y-69000000D01*
X47642857Y-68928571D01*
X47571428Y-68785714D01*
X47571428Y-68571428D01*
X133535714Y-43678571D02*
X133535714Y-42178571D01*
X134107142Y-42178571D01*
X134250000Y-42250000D01*
X134321428Y-42321428D01*
X134392857Y-42464285D01*
X134392857Y-42678571D01*
X134321428Y-42821428D01*
X134250000Y-42892857D01*
X134107142Y-42964285D01*
X133535714Y-42964285D01*
X135321428Y-42178571D02*
X135607142Y-42178571D01*
X135750000Y-42250000D01*
X135892857Y-42392857D01*
X135964285Y-42678571D01*
X135964285Y-43178571D01*
X135892857Y-43464285D01*
X135750000Y-43607142D01*
X135607142Y-43678571D01*
X135321428Y-43678571D01*
X135178571Y-43607142D01*
X135035714Y-43464285D01*
X134964285Y-43178571D01*
X134964285Y-42678571D01*
X135035714Y-42392857D01*
X135178571Y-42250000D01*
X135321428Y-42178571D01*
X136464285Y-42178571D02*
X136821428Y-43678571D01*
X137107142Y-42607142D01*
X137392857Y-43678571D01*
X137750000Y-42178571D01*
X138321428Y-42892857D02*
X138821428Y-42892857D01*
X139035714Y-43678571D02*
X138321428Y-43678571D01*
X138321428Y-42178571D01*
X139035714Y-42178571D01*
X140535714Y-43678571D02*
X140035714Y-42964285D01*
X139678571Y-43678571D02*
X139678571Y-42178571D01*
X140250000Y-42178571D01*
X140392857Y-42250000D01*
X140464285Y-42321428D01*
X140535714Y-42464285D01*
X140535714Y-42678571D01*
X140464285Y-42821428D01*
X140392857Y-42892857D01*
X140250000Y-42964285D01*
X139678571Y-42964285D01*
X103285714Y-77685357D02*
X103500000Y-77756785D01*
X103571428Y-77828214D01*
X103642857Y-77971071D01*
X103642857Y-78185357D01*
X103571428Y-78328214D01*
X103500000Y-78399642D01*
X103357142Y-78471071D01*
X102785714Y-78471071D01*
X102785714Y-76971071D01*
X103285714Y-76971071D01*
X103428571Y-77042500D01*
X103500000Y-77113928D01*
X103571428Y-77256785D01*
X103571428Y-77399642D01*
X103500000Y-77542500D01*
X103428571Y-77613928D01*
X103285714Y-77685357D01*
X102785714Y-77685357D01*
X104285714Y-78471071D02*
X104285714Y-76971071D01*
X105714285Y-78471071D02*
X105000000Y-78471071D01*
X105000000Y-76971071D01*
X106928571Y-78471071D02*
X106214285Y-78471071D01*
X106214285Y-76971071D01*
X99142857Y-79386071D02*
X99642857Y-80886071D01*
X100142857Y-79386071D01*
X100571428Y-80457500D02*
X101285714Y-80457500D01*
X100428571Y-80886071D02*
X100928571Y-79386071D01*
X101428571Y-80886071D01*
X102642857Y-80886071D02*
X101928571Y-80886071D01*
X101928571Y-79386071D01*
X103142857Y-80886071D02*
X103142857Y-79386071D01*
X103857142Y-80886071D02*
X103857142Y-79386071D01*
X104214285Y-79386071D01*
X104428571Y-79457500D01*
X104571428Y-79600357D01*
X104642857Y-79743214D01*
X104714285Y-80028928D01*
X104714285Y-80243214D01*
X104642857Y-80528928D01*
X104571428Y-80671785D01*
X104428571Y-80814642D01*
X104214285Y-80886071D01*
X103857142Y-80886071D01*
X105285714Y-80457500D02*
X106000000Y-80457500D01*
X105142857Y-80886071D02*
X105642857Y-79386071D01*
X106142857Y-80886071D01*
X106428571Y-79386071D02*
X107285714Y-79386071D01*
X106857142Y-80886071D02*
X106857142Y-79386071D01*
X108071428Y-79386071D02*
X108357142Y-79386071D01*
X108500000Y-79457500D01*
X108642857Y-79600357D01*
X108714285Y-79886071D01*
X108714285Y-80386071D01*
X108642857Y-80671785D01*
X108500000Y-80814642D01*
X108357142Y-80886071D01*
X108071428Y-80886071D01*
X107928571Y-80814642D01*
X107785714Y-80671785D01*
X107714285Y-80386071D01*
X107714285Y-79886071D01*
X107785714Y-79600357D01*
X107928571Y-79457500D01*
X108071428Y-79386071D01*
X110214285Y-80886071D02*
X109714285Y-80171785D01*
X109357142Y-80886071D02*
X109357142Y-79386071D01*
X109928571Y-79386071D01*
X110071428Y-79457500D01*
X110142857Y-79528928D01*
X110214285Y-79671785D01*
X110214285Y-79886071D01*
X110142857Y-80028928D01*
X110071428Y-80100357D01*
X109928571Y-80171785D01*
X109357142Y-80171785D01*
D11*
X61292857Y-81539285D02*
X61292857Y-82182142D01*
X61257142Y-82253571D01*
X61185714Y-82289285D01*
X61150000Y-82289285D01*
X61292857Y-81289285D02*
X61257142Y-81325000D01*
X61292857Y-81360714D01*
X61328571Y-81325000D01*
X61292857Y-81289285D01*
X61292857Y-81360714D01*
X61757142Y-82039285D02*
X61685714Y-82003571D01*
X61650000Y-81932142D01*
X61650000Y-81289285D01*
X62364285Y-82003571D02*
X62292857Y-82039285D01*
X62150000Y-82039285D01*
X62078571Y-82003571D01*
X62042857Y-81967857D01*
X62007142Y-81896428D01*
X62007142Y-81682142D01*
X62042857Y-81610714D01*
X62078571Y-81575000D01*
X62150000Y-81539285D01*
X62292857Y-81539285D01*
X62364285Y-81575000D01*
X62685714Y-81539285D02*
X62685714Y-82182142D01*
X62650000Y-82253571D01*
X62578571Y-82289285D01*
X62542857Y-82289285D01*
X62685714Y-81289285D02*
X62650000Y-81325000D01*
X62685714Y-81360714D01*
X62721428Y-81325000D01*
X62685714Y-81289285D01*
X62685714Y-81360714D01*
X63150000Y-82039285D02*
X63078571Y-82003571D01*
X63042857Y-81932142D01*
X63042857Y-81289285D01*
X63757142Y-82003571D02*
X63685714Y-82039285D01*
X63542857Y-82039285D01*
X63471428Y-82003571D01*
X63435714Y-81967857D01*
X63400000Y-81896428D01*
X63400000Y-81682142D01*
X63435714Y-81610714D01*
X63471428Y-81575000D01*
X63542857Y-81539285D01*
X63685714Y-81539285D01*
X63757142Y-81575000D01*
X64078571Y-81539285D02*
X64078571Y-82182142D01*
X64042857Y-82253571D01*
X63971428Y-82289285D01*
X63935714Y-82289285D01*
X64078571Y-81289285D02*
X64042857Y-81325000D01*
X64078571Y-81360714D01*
X64114285Y-81325000D01*
X64078571Y-81289285D01*
X64078571Y-81360714D01*
X64542857Y-82039285D02*
X64471428Y-82003571D01*
X64435714Y-81932142D01*
X64435714Y-81289285D01*
X65150000Y-82003571D02*
X65078571Y-82039285D01*
X64935714Y-82039285D01*
X64864285Y-82003571D01*
X64828571Y-81967857D01*
X64792857Y-81896428D01*
X64792857Y-81682142D01*
X64828571Y-81610714D01*
X64864285Y-81575000D01*
X64935714Y-81539285D01*
X65078571Y-81539285D01*
X65150000Y-81575000D01*
X65471428Y-81539285D02*
X65471428Y-82182142D01*
X65435714Y-82253571D01*
X65364285Y-82289285D01*
X65328571Y-82289285D01*
X65471428Y-81289285D02*
X65435714Y-81325000D01*
X65471428Y-81360714D01*
X65507142Y-81325000D01*
X65471428Y-81289285D01*
X65471428Y-81360714D01*
X65935714Y-82039285D02*
X65864285Y-82003571D01*
X65828571Y-81932142D01*
X65828571Y-81289285D01*
X66542857Y-82003571D02*
X66471428Y-82039285D01*
X66328571Y-82039285D01*
X66257142Y-82003571D01*
X66221428Y-81967857D01*
X66185714Y-81896428D01*
X66185714Y-81682142D01*
X66221428Y-81610714D01*
X66257142Y-81575000D01*
X66328571Y-81539285D01*
X66471428Y-81539285D01*
X66542857Y-81575000D01*
D10*
X134107142Y-52357142D02*
X134321428Y-52428571D01*
X134678571Y-52428571D01*
X134821428Y-52357142D01*
X134892857Y-52285714D01*
X134964285Y-52142857D01*
X134964285Y-52000000D01*
X134892857Y-51857142D01*
X134821428Y-51785714D01*
X134678571Y-51714285D01*
X134392857Y-51642857D01*
X134250000Y-51571428D01*
X134178571Y-51500000D01*
X134107142Y-51357142D01*
X134107142Y-51214285D01*
X134178571Y-51071428D01*
X134250000Y-51000000D01*
X134392857Y-50928571D01*
X134750000Y-50928571D01*
X134964285Y-51000000D01*
X135392857Y-50928571D02*
X136250000Y-50928571D01*
X135821428Y-52428571D02*
X135821428Y-50928571D01*
X136750000Y-52428571D02*
X136750000Y-50928571D01*
X137107142Y-50928571D01*
X137321428Y-51000000D01*
X137464285Y-51142857D01*
X137535714Y-51285714D01*
X137607142Y-51571428D01*
X137607142Y-51785714D01*
X137535714Y-52071428D01*
X137464285Y-52214285D01*
X137321428Y-52357142D01*
X137107142Y-52428571D01*
X136750000Y-52428571D01*
X138750000Y-51642857D02*
X138964285Y-51714285D01*
X139035714Y-51785714D01*
X139107142Y-51928571D01*
X139107142Y-52142857D01*
X139035714Y-52285714D01*
X138964285Y-52357142D01*
X138821428Y-52428571D01*
X138250000Y-52428571D01*
X138250000Y-50928571D01*
X138750000Y-50928571D01*
X138892857Y-51000000D01*
X138964285Y-51071428D01*
X139035714Y-51214285D01*
X139035714Y-51357142D01*
X138964285Y-51500000D01*
X138892857Y-51571428D01*
X138750000Y-51642857D01*
X138250000Y-51642857D01*
X140035714Y-51714285D02*
X140035714Y-52428571D01*
X139535714Y-50928571D02*
X140035714Y-51714285D01*
X140535714Y-50928571D01*
X135928571Y-47785714D02*
X135857142Y-47857142D01*
X135642857Y-47928571D01*
X135500000Y-47928571D01*
X135285714Y-47857142D01*
X135142857Y-47714285D01*
X135071428Y-47571428D01*
X135000000Y-47285714D01*
X135000000Y-47071428D01*
X135071428Y-46785714D01*
X135142857Y-46642857D01*
X135285714Y-46500000D01*
X135500000Y-46428571D01*
X135642857Y-46428571D01*
X135857142Y-46500000D01*
X135928571Y-46571428D01*
X136571428Y-47928571D02*
X136571428Y-46428571D01*
X136571428Y-47142857D02*
X137428571Y-47142857D01*
X137428571Y-47928571D02*
X137428571Y-46428571D01*
X139000000Y-47928571D02*
X138500000Y-47214285D01*
X138142857Y-47928571D02*
X138142857Y-46428571D01*
X138714285Y-46428571D01*
X138857142Y-46500000D01*
X138928571Y-46571428D01*
X139000000Y-46714285D01*
X139000000Y-46928571D01*
X138928571Y-47071428D01*
X138857142Y-47142857D01*
X138714285Y-47214285D01*
X138142857Y-47214285D01*
X140428571Y-46500000D02*
X140285714Y-46428571D01*
X140071428Y-46428571D01*
X139857142Y-46500000D01*
X139714285Y-46642857D01*
X139642857Y-46785714D01*
X139571428Y-47071428D01*
X139571428Y-47285714D01*
X139642857Y-47571428D01*
X139714285Y-47714285D01*
X139857142Y-47857142D01*
X140071428Y-47928571D01*
X140214285Y-47928571D01*
X140428571Y-47857142D01*
X140500000Y-47785714D01*
X140500000Y-47285714D01*
X140214285Y-47285714D01*
D12*
%TO.C,BT801*%
X74230952Y-88028571D02*
X73469047Y-88028571D01*
X73850000Y-87647619D02*
X73850000Y-88409523D01*
X55030952Y-87628571D02*
X54269047Y-87628571D01*
%TO.C,U501*%
X73372380Y-66621904D02*
X74372380Y-66383809D01*
X73658095Y-66193333D01*
X74372380Y-66002857D01*
X73372380Y-65764761D01*
X74372380Y-65383809D02*
X73372380Y-65383809D01*
X73372380Y-65002857D02*
X73372380Y-64336190D01*
X74372380Y-65002857D01*
X74372380Y-64336190D01*
X73800952Y-63812380D02*
X73753333Y-63907619D01*
X73705714Y-63955238D01*
X73610476Y-64002857D01*
X73562857Y-64002857D01*
X73467619Y-63955238D01*
X73420000Y-63907619D01*
X73372380Y-63812380D01*
X73372380Y-63621904D01*
X73420000Y-63526666D01*
X73467619Y-63479047D01*
X73562857Y-63431428D01*
X73610476Y-63431428D01*
X73705714Y-63479047D01*
X73753333Y-63526666D01*
X73800952Y-63621904D01*
X73800952Y-63812380D01*
X73848571Y-63907619D01*
X73896190Y-63955238D01*
X73991428Y-64002857D01*
X74181904Y-64002857D01*
X74277142Y-63955238D01*
X74324761Y-63907619D01*
X74372380Y-63812380D01*
X74372380Y-63621904D01*
X74324761Y-63526666D01*
X74277142Y-63479047D01*
X74181904Y-63431428D01*
X73991428Y-63431428D01*
X73896190Y-63479047D01*
X73848571Y-63526666D01*
X73800952Y-63621904D01*
X73372380Y-62526666D02*
X73372380Y-63002857D01*
X73848571Y-63050476D01*
X73800952Y-63002857D01*
X73753333Y-62907619D01*
X73753333Y-62669523D01*
X73800952Y-62574285D01*
X73848571Y-62526666D01*
X73943809Y-62479047D01*
X74181904Y-62479047D01*
X74277142Y-62526666D01*
X74324761Y-62574285D01*
X74372380Y-62669523D01*
X74372380Y-62907619D01*
X74324761Y-63002857D01*
X74277142Y-63050476D01*
X73372380Y-61860000D02*
X73372380Y-61764761D01*
X73420000Y-61669523D01*
X73467619Y-61621904D01*
X73562857Y-61574285D01*
X73753333Y-61526666D01*
X73991428Y-61526666D01*
X74181904Y-61574285D01*
X74277142Y-61621904D01*
X74324761Y-61669523D01*
X74372380Y-61764761D01*
X74372380Y-61860000D01*
X74324761Y-61955238D01*
X74277142Y-62002857D01*
X74181904Y-62050476D01*
X73991428Y-62098095D01*
X73753333Y-62098095D01*
X73562857Y-62050476D01*
X73467619Y-62002857D01*
X73420000Y-61955238D01*
X73372380Y-61860000D01*
X74372380Y-61098095D02*
X73705714Y-61098095D01*
X73372380Y-61098095D02*
X73420000Y-61145714D01*
X73467619Y-61098095D01*
X73420000Y-61050476D01*
X73372380Y-61098095D01*
X73467619Y-61098095D01*
X74372380Y-60479047D02*
X74324761Y-60574285D01*
X74277142Y-60621904D01*
X74181904Y-60669523D01*
X73896190Y-60669523D01*
X73800952Y-60621904D01*
X73753333Y-60574285D01*
X73705714Y-60479047D01*
X73705714Y-60336190D01*
X73753333Y-60240952D01*
X73800952Y-60193333D01*
X73896190Y-60145714D01*
X74181904Y-60145714D01*
X74277142Y-60193333D01*
X74324761Y-60240952D01*
X74372380Y-60336190D01*
X74372380Y-60479047D01*
D13*
%TO.C,D901*%
X136015000Y-75265000D02*
X136015000Y-76735000D01*
X138300000Y-75265000D02*
X136015000Y-75265000D01*
X136015000Y-76735000D02*
X138300000Y-76735000D01*
%TO.C,C203*%
X128261252Y-65595000D02*
X127738748Y-65595000D01*
X128261252Y-64125000D02*
X127738748Y-64125000D01*
%TO.C,R906*%
X131130000Y-80153641D02*
X131130000Y-79846359D01*
X130370000Y-80153641D02*
X130370000Y-79846359D01*
%TO.C,R902*%
X135130000Y-72403641D02*
X135130000Y-72096359D01*
X134370000Y-72403641D02*
X134370000Y-72096359D01*
%TO.C,Q902*%
X127750000Y-78440000D02*
X128400000Y-78440000D01*
X127750000Y-81560000D02*
X127100000Y-81560000D01*
X127750000Y-78440000D02*
X127100000Y-78440000D01*
X127750000Y-81560000D02*
X129425000Y-81560000D01*
%TO.C,C302*%
X85493000Y-61688252D02*
X85493000Y-61165748D01*
X84023000Y-61688252D02*
X84023000Y-61165748D01*
%TO.C,SW102*%
X91990000Y-77090000D02*
X91010000Y-77090000D01*
X97360000Y-80910000D02*
X96010000Y-80910000D01*
X89490000Y-77090000D02*
X88140000Y-77090000D01*
X97360000Y-77090000D02*
X97360000Y-80910000D01*
X91990000Y-80910000D02*
X91010000Y-80910000D01*
X97360000Y-77090000D02*
X96010000Y-77090000D01*
X94490000Y-77090000D02*
X93510000Y-77090000D01*
X94490000Y-80910000D02*
X93510000Y-80910000D01*
X88140000Y-80910000D02*
X89490000Y-80910000D01*
X88140000Y-77090000D02*
X88140000Y-80910000D01*
%TO.C,J101*%
X76090000Y-82390000D02*
X76090000Y-92210000D01*
X79190000Y-93610000D02*
X81000000Y-93610000D01*
X85910000Y-82390000D02*
X85910000Y-92210000D01*
X76090000Y-92210000D02*
X79190000Y-92210000D01*
X78700000Y-82150000D02*
X75850000Y-82150000D01*
X81000000Y-82390000D02*
X85910000Y-82390000D01*
X82810000Y-93610000D02*
X81000000Y-93610000D01*
X79190000Y-92210000D02*
X79190000Y-93610000D01*
X82810000Y-92210000D02*
X82810000Y-93610000D01*
X81000000Y-82390000D02*
X76090000Y-82390000D01*
X85910000Y-92210000D02*
X82810000Y-92210000D01*
X75850000Y-82150000D02*
X75850000Y-85000000D01*
%TO.C,D201*%
X138300000Y-48515000D02*
X136015000Y-48515000D01*
X136015000Y-48515000D02*
X136015000Y-49985000D01*
X136015000Y-49985000D02*
X138300000Y-49985000D01*
%TO.C,R401*%
X103596359Y-70130000D02*
X103903641Y-70130000D01*
X103596359Y-69370000D02*
X103903641Y-69370000D01*
%TO.C,R901*%
X134407500Y-75846359D02*
X134407500Y-76153641D01*
X135167500Y-75846359D02*
X135167500Y-76153641D01*
%TO.C,R601*%
X116653641Y-53870000D02*
X116346359Y-53870000D01*
X116653641Y-54630000D02*
X116346359Y-54630000D01*
%TO.C,R802*%
X56953641Y-62720000D02*
X56646359Y-62720000D01*
X56953641Y-63480000D02*
X56646359Y-63480000D01*
%TO.C,R701*%
X100380000Y-61846359D02*
X100380000Y-62153641D01*
X99620000Y-61846359D02*
X99620000Y-62153641D01*
%TO.C,D301*%
X136015000Y-45735000D02*
X138300000Y-45735000D01*
X138300000Y-44265000D02*
X136015000Y-44265000D01*
X136015000Y-44265000D02*
X136015000Y-45735000D01*
%TO.C,C801*%
X56261252Y-59985000D02*
X55738748Y-59985000D01*
X56261252Y-58515000D02*
X55738748Y-58515000D01*
%TO.C,R202*%
X128237258Y-70072500D02*
X127762742Y-70072500D01*
X128237258Y-69027500D02*
X127762742Y-69027500D01*
%TO.C,U201*%
X119890000Y-60485000D02*
X114315000Y-60485000D01*
X119890000Y-65515000D02*
X122175000Y-65515000D01*
X119890000Y-60485000D02*
X122175000Y-60485000D01*
X119890000Y-65515000D02*
X117605000Y-65515000D01*
%TO.C,J601*%
X109910000Y-92210000D02*
X106810000Y-92210000D01*
X100090000Y-92210000D02*
X103190000Y-92210000D01*
X106810000Y-93610000D02*
X105000000Y-93610000D01*
X103190000Y-92210000D02*
X103190000Y-93610000D01*
X105000000Y-82390000D02*
X100090000Y-82390000D01*
X99850000Y-82150000D02*
X99850000Y-85000000D01*
X106810000Y-92210000D02*
X106810000Y-93610000D01*
X100090000Y-82390000D02*
X100090000Y-92210000D01*
X105000000Y-82390000D02*
X109910000Y-82390000D01*
X103190000Y-93610000D02*
X105000000Y-93610000D01*
X102700000Y-82150000D02*
X99850000Y-82150000D01*
X109910000Y-82390000D02*
X109910000Y-92210000D01*
%TO.C,D902*%
X136015000Y-72985000D02*
X138300000Y-72985000D01*
X138300000Y-71515000D02*
X136015000Y-71515000D01*
X136015000Y-71515000D02*
X136015000Y-72985000D01*
%TO.C,SW101*%
X94490000Y-90910000D02*
X93510000Y-90910000D01*
X91990000Y-87090000D02*
X91010000Y-87090000D01*
X91990000Y-90910000D02*
X91010000Y-90910000D01*
X97360000Y-87090000D02*
X97360000Y-90910000D01*
X89490000Y-87090000D02*
X88140000Y-87090000D01*
X88140000Y-90910000D02*
X89490000Y-90910000D01*
X94490000Y-87090000D02*
X93510000Y-87090000D01*
X97360000Y-90910000D02*
X96010000Y-90910000D01*
X97360000Y-87090000D02*
X96010000Y-87090000D01*
X88140000Y-87090000D02*
X88140000Y-90910000D01*
%TO.C,U801*%
X64313600Y-69002800D02*
X60453600Y-69002800D01*
X60453600Y-69002800D02*
X60453600Y-68747800D01*
X64313600Y-58482800D02*
X60453600Y-58482800D01*
X64313600Y-58482800D02*
X68173600Y-58482800D01*
X60453600Y-58482800D02*
X60453600Y-58737800D01*
X60453600Y-58737800D02*
X58638600Y-58737800D01*
X68173600Y-69002800D02*
X68173600Y-68747800D01*
X64313600Y-69002800D02*
X68173600Y-69002800D01*
X68173600Y-58482800D02*
X68173600Y-58737800D01*
%TO.C,R903*%
X134370000Y-79606359D02*
X134370000Y-79913641D01*
X135130000Y-79606359D02*
X135130000Y-79913641D01*
%TO.C,D401*%
X138300000Y-39515000D02*
X136015000Y-39515000D01*
X136015000Y-39515000D02*
X136015000Y-40985000D01*
X136015000Y-40985000D02*
X138300000Y-40985000D01*
%TO.C,G\u002A\u002A\u002A*%
G36*
X48284890Y-44436855D02*
G01*
X47894841Y-44436855D01*
X47729044Y-44435694D01*
X47616383Y-44431488D01*
X47547619Y-44423153D01*
X47513511Y-44409603D01*
X47504791Y-44391071D01*
X47516063Y-44370317D01*
X47556162Y-44355746D01*
X47634514Y-44345895D01*
X47760544Y-44339295D01*
X47855836Y-44336464D01*
X48206880Y-44327641D01*
X48225006Y-43812777D01*
X47868237Y-43812777D01*
X47707432Y-43811204D01*
X47599154Y-43805686D01*
X47533579Y-43795019D01*
X47500886Y-43778001D01*
X47493883Y-43766949D01*
X47495260Y-43746893D01*
X47523508Y-43732790D01*
X47587738Y-43723210D01*
X47697061Y-43716722D01*
X47841589Y-43712342D01*
X48206880Y-43703563D01*
X48224882Y-43159495D01*
X47859582Y-43150694D01*
X47684088Y-43143968D01*
X47565843Y-43133283D01*
X47499775Y-43117996D01*
X47481334Y-43102887D01*
X47490582Y-43086234D01*
X47536083Y-43074741D01*
X47625081Y-43067694D01*
X47764821Y-43064378D01*
X47876638Y-43063882D01*
X48284890Y-43063882D01*
X48284890Y-44436855D01*
G37*
G36*
X48060068Y-44656388D02*
G01*
X48172301Y-44660453D01*
X48240925Y-44668605D01*
X48275325Y-44681971D01*
X48284887Y-44701675D01*
X48284890Y-44702089D01*
X48275683Y-44721916D01*
X48241804Y-44735384D01*
X48173869Y-44743619D01*
X48062491Y-44747747D01*
X47898284Y-44748894D01*
X47894841Y-44748895D01*
X47729613Y-44747790D01*
X47617380Y-44743724D01*
X47548756Y-44735572D01*
X47514356Y-44722207D01*
X47504794Y-44702502D01*
X47504791Y-44702089D01*
X47513998Y-44682261D01*
X47547877Y-44668793D01*
X47615812Y-44660559D01*
X47727190Y-44656431D01*
X47891397Y-44655283D01*
X47894841Y-44655283D01*
X48060068Y-44656388D01*
G37*
G36*
X48901167Y-42065537D02*
G01*
X49172059Y-42073500D01*
X49390753Y-42099010D01*
X49565733Y-42145030D01*
X49705481Y-42214525D01*
X49818481Y-42310459D01*
X49899427Y-42414388D01*
X49943515Y-42488259D01*
X49969447Y-42558353D01*
X49981873Y-42645436D01*
X49985443Y-42770274D01*
X49985504Y-42798817D01*
X49983005Y-42933202D01*
X49972087Y-43027587D01*
X49947620Y-43104294D01*
X49904473Y-43185644D01*
X49891740Y-43206747D01*
X49802986Y-43324719D01*
X49691648Y-43411512D01*
X49628713Y-43446130D01*
X49557154Y-43480615D01*
X49493014Y-43504378D01*
X49422390Y-43519405D01*
X49331377Y-43527683D01*
X49206069Y-43531199D01*
X49032562Y-43531941D01*
X48596929Y-43531941D01*
X48596929Y-43251106D01*
X49010381Y-43250989D01*
X49185611Y-43249742D01*
X49310989Y-43245123D01*
X49399044Y-43235642D01*
X49462303Y-43219810D01*
X49513294Y-43196138D01*
X49523731Y-43189961D01*
X49637797Y-43087867D01*
X49705143Y-42958304D01*
X49726164Y-42814726D01*
X49701254Y-42670590D01*
X49630810Y-42539353D01*
X49515226Y-42434469D01*
X49501301Y-42426007D01*
X49447701Y-42399312D01*
X49386415Y-42381409D01*
X49304265Y-42370697D01*
X49188071Y-42365573D01*
X49024657Y-42364437D01*
X48995341Y-42364511D01*
X48596929Y-42365827D01*
X48596929Y-42065356D01*
X48901167Y-42065537D01*
G37*
G36*
X50338525Y-48220332D02*
G01*
X50329187Y-48280528D01*
X50304908Y-48311176D01*
X50248543Y-48323301D01*
X50172728Y-48326945D01*
X50087291Y-48327651D01*
X50058960Y-48321183D01*
X50082710Y-48306231D01*
X50086917Y-48304547D01*
X50142530Y-48259410D01*
X50155581Y-48220332D01*
X50225164Y-48220332D01*
X50244753Y-48275207D01*
X50266339Y-48290541D01*
X50294497Y-48264001D01*
X50307515Y-48220332D01*
X50299950Y-48163115D01*
X50266339Y-48150123D01*
X50227717Y-48171662D01*
X50225164Y-48220332D01*
X50155581Y-48220332D01*
X50157126Y-48215707D01*
X50130131Y-48159282D01*
X50086917Y-48140941D01*
X50075247Y-48133045D01*
X50116853Y-48126419D01*
X50182506Y-48123169D01*
X50266339Y-48121020D01*
X50348303Y-48118919D01*
X50338525Y-48220332D01*
G37*
G36*
X48901167Y-40380525D02*
G01*
X49172059Y-40388488D01*
X49390753Y-40413997D01*
X49565733Y-40460017D01*
X49705481Y-40529512D01*
X49818481Y-40625447D01*
X49899427Y-40729376D01*
X49943515Y-40803247D01*
X49969447Y-40873341D01*
X49981873Y-40960424D01*
X49985443Y-41085262D01*
X49985504Y-41113805D01*
X49983005Y-41248189D01*
X49972087Y-41342574D01*
X49947620Y-41419281D01*
X49904473Y-41500632D01*
X49891740Y-41521735D01*
X49802986Y-41639707D01*
X49691648Y-41726500D01*
X49628713Y-41761118D01*
X49557154Y-41795603D01*
X49493014Y-41819365D01*
X49422390Y-41834392D01*
X49331377Y-41842671D01*
X49206069Y-41846187D01*
X49032562Y-41846929D01*
X48596929Y-41846929D01*
X48596929Y-41566094D01*
X49010381Y-41565977D01*
X49185611Y-41564730D01*
X49310989Y-41560110D01*
X49399044Y-41550629D01*
X49462303Y-41534798D01*
X49513294Y-41511126D01*
X49523731Y-41504949D01*
X49636235Y-41403431D01*
X49703655Y-41273167D01*
X49725990Y-41128563D01*
X49703241Y-40984025D01*
X49635407Y-40853960D01*
X49523731Y-40753528D01*
X49473733Y-40728000D01*
X49414127Y-40710628D01*
X49332385Y-40699923D01*
X49215979Y-40694396D01*
X49052382Y-40692557D01*
X49010381Y-40692500D01*
X48596929Y-40692383D01*
X48596929Y-40380344D01*
X48901167Y-40380525D01*
G37*
G36*
X48284890Y-46340295D02*
G01*
X47894841Y-46340295D01*
X47729044Y-46339134D01*
X47616383Y-46334928D01*
X47547619Y-46326593D01*
X47513511Y-46313043D01*
X47504791Y-46294511D01*
X47516063Y-46273756D01*
X47556162Y-46259186D01*
X47634514Y-46249335D01*
X47760544Y-46242735D01*
X47855836Y-46239904D01*
X48206880Y-46231081D01*
X48206880Y-45045332D01*
X47845345Y-45029730D01*
X47681698Y-45020823D01*
X47573555Y-45010101D01*
X47514017Y-44996481D01*
X47496185Y-44978883D01*
X47496901Y-44975123D01*
X47522827Y-44957361D01*
X47590949Y-44945365D01*
X47707777Y-44938500D01*
X47879824Y-44936132D01*
X47897441Y-44936118D01*
X48284890Y-44936118D01*
X48284890Y-46340295D01*
G37*
G36*
X49507964Y-43767477D02*
G01*
X49686689Y-43847151D01*
X49830053Y-43973011D01*
X49932914Y-44139575D01*
X49990132Y-44341363D01*
X50000421Y-44487281D01*
X49972263Y-44685017D01*
X49895851Y-44854857D01*
X49780434Y-44993153D01*
X49635262Y-45096256D01*
X49469585Y-45160518D01*
X49292654Y-45182290D01*
X49113719Y-45157923D01*
X48942029Y-45083770D01*
X48793535Y-44963331D01*
X48673326Y-44793784D01*
X48608209Y-44602063D01*
X48601085Y-44432917D01*
X48850293Y-44432917D01*
X48858215Y-44517011D01*
X48877741Y-44594649D01*
X48945224Y-44734955D01*
X49050826Y-44836367D01*
X49181563Y-44895812D01*
X49324452Y-44910217D01*
X49466510Y-44876510D01*
X49594752Y-44791619D01*
X49616475Y-44769460D01*
X49710089Y-44630001D01*
X49742387Y-44480791D01*
X49714098Y-44317970D01*
X49705964Y-44295486D01*
X49624270Y-44155661D01*
X49511150Y-44060992D01*
X49378741Y-44012164D01*
X49239182Y-44009868D01*
X49104611Y-44054790D01*
X48987166Y-44147618D01*
X48916769Y-44250751D01*
X48868713Y-44353835D01*
X48850293Y-44432917D01*
X48601085Y-44432917D01*
X48599608Y-44397848D01*
X48648947Y-44190817D01*
X48671886Y-44136766D01*
X48784859Y-43961420D01*
X48935520Y-43834816D01*
X49119027Y-43760020D01*
X49239182Y-43746300D01*
X49299017Y-43739467D01*
X49507964Y-43767477D01*
G37*
G36*
X48284890Y-47229607D02*
G01*
X48284099Y-47467945D01*
X48281505Y-47649833D01*
X48276780Y-47781211D01*
X48269592Y-47868021D01*
X48259612Y-47916203D01*
X48246510Y-47931697D01*
X48245885Y-47931721D01*
X48232147Y-47917197D01*
X48221798Y-47869523D01*
X48214469Y-47782579D01*
X48209793Y-47650242D01*
X48207399Y-47466392D01*
X48206880Y-47284239D01*
X48206880Y-46636732D01*
X47582801Y-46636732D01*
X47574326Y-47237408D01*
X47565852Y-47838084D01*
X48035258Y-47838084D01*
X48035258Y-47588452D01*
X48038908Y-47464829D01*
X48048871Y-47377956D01*
X48063671Y-47339653D01*
X48066462Y-47338821D01*
X48081181Y-47368388D01*
X48091752Y-47450701D01*
X48097169Y-47576176D01*
X48097666Y-47635258D01*
X48097666Y-47931696D01*
X47507112Y-47931696D01*
X47498151Y-47242553D01*
X47496110Y-47041779D01*
X47495381Y-46862863D01*
X47495909Y-46714919D01*
X47497644Y-46607056D01*
X47500532Y-46548386D01*
X47502191Y-46540464D01*
X47536599Y-46535512D01*
X47620975Y-46531435D01*
X47742885Y-46528637D01*
X47889890Y-46527523D01*
X47900041Y-46527519D01*
X48284890Y-46527519D01*
X48284890Y-47229607D01*
G37*
G36*
X51569901Y-43762200D02*
G01*
X51732874Y-43844963D01*
X51898039Y-43982649D01*
X52068720Y-44177439D01*
X52231295Y-44405651D01*
X52413710Y-44657829D01*
X52591874Y-44852055D01*
X52771090Y-44992049D01*
X52956659Y-45081534D01*
X53153882Y-45124230D01*
X53262206Y-45129180D01*
X53378061Y-45122986D01*
X53476906Y-45108085D01*
X53527486Y-45091958D01*
X53589637Y-45065497D01*
X53606086Y-45074150D01*
X53578617Y-45112536D01*
X53509017Y-45175276D01*
X53496506Y-45185306D01*
X53307127Y-45297234D01*
X53092878Y-45359630D01*
X52869072Y-45370714D01*
X52651021Y-45328706D01*
X52562829Y-45293870D01*
X52448821Y-45224585D01*
X52311370Y-45116114D01*
X52162790Y-44980420D01*
X52015393Y-44829466D01*
X51881493Y-44675215D01*
X51773404Y-44529631D01*
X51768381Y-44522005D01*
X51663260Y-44379675D01*
X51564859Y-44289982D01*
X51463120Y-44245451D01*
X51384940Y-44237150D01*
X51270628Y-44259877D01*
X51194873Y-44329211D01*
X51156509Y-44446880D01*
X51152197Y-44581926D01*
X51175995Y-44657475D01*
X51236290Y-44765218D01*
X51325033Y-44893643D01*
X51434173Y-45031240D01*
X51555660Y-45166497D01*
X51574936Y-45186368D01*
X51758443Y-45342422D01*
X51973966Y-45475498D01*
X52203980Y-45577377D01*
X52430964Y-45639841D01*
X52575430Y-45655631D01*
X52639401Y-45661075D01*
X52650825Y-45670901D01*
X52619227Y-45683031D01*
X52554134Y-45695382D01*
X52465069Y-45705876D01*
X52361559Y-45712430D01*
X52310197Y-45713562D01*
X51997295Y-45688882D01*
X51703263Y-45613098D01*
X51434501Y-45490706D01*
X51197408Y-45326201D01*
X50998383Y-45124078D01*
X50843825Y-44888833D01*
X50740132Y-44624961D01*
X50735400Y-44607289D01*
X50705629Y-44484327D01*
X50693267Y-44398566D01*
X50697287Y-44327585D01*
X50716660Y-44248963D01*
X50718663Y-44242269D01*
X50804541Y-44060981D01*
X50938855Y-43909684D01*
X51110879Y-43798507D01*
X51237237Y-43752708D01*
X51405796Y-43732176D01*
X51569901Y-43762200D01*
G37*
G36*
X48284890Y-42845455D02*
G01*
X47894841Y-42845455D01*
X47729613Y-42844350D01*
X47617380Y-42840284D01*
X47548756Y-42832132D01*
X47514356Y-42818767D01*
X47504794Y-42799062D01*
X47504791Y-42798649D01*
X47516098Y-42775274D01*
X47557259Y-42760956D01*
X47639138Y-42753783D01*
X47770699Y-42751843D01*
X48036606Y-42751843D01*
X48028131Y-42151167D01*
X48025959Y-41997246D01*
X48103089Y-41997246D01*
X48104787Y-42153429D01*
X48108466Y-42361025D01*
X48113085Y-42514012D01*
X48119383Y-42620189D01*
X48128100Y-42687355D01*
X48139976Y-42723308D01*
X48155750Y-42735848D01*
X48160074Y-42736241D01*
X48176969Y-42727997D01*
X48189744Y-42698034D01*
X48199155Y-42638507D01*
X48205956Y-42541569D01*
X48210903Y-42399376D01*
X48214751Y-42204080D01*
X48215406Y-42161254D01*
X48216714Y-41967903D01*
X48214806Y-41801469D01*
X48209999Y-41671206D01*
X48202610Y-41586367D01*
X48194722Y-41557056D01*
X48162153Y-41533997D01*
X48137606Y-41542191D01*
X48120254Y-41587124D01*
X48109268Y-41674286D01*
X48103823Y-41809164D01*
X48103089Y-41997246D01*
X48025959Y-41997246D01*
X48019656Y-41550492D01*
X47746622Y-41541476D01*
X47603461Y-41534061D01*
X47516140Y-41521891D01*
X47478151Y-41502919D01*
X47482986Y-41475094D01*
X47494390Y-41462080D01*
X47531927Y-41454106D01*
X47619100Y-41447546D01*
X47743143Y-41443053D01*
X47891289Y-41441283D01*
X47900041Y-41441278D01*
X48284890Y-41441278D01*
X48284890Y-42845455D01*
G37*
G36*
X49570529Y-46772761D02*
G01*
X49721058Y-46856490D01*
X49847551Y-46976336D01*
X49941238Y-47130387D01*
X49993345Y-47316729D01*
X50001106Y-47429808D01*
X49974197Y-47648389D01*
X49893645Y-47835170D01*
X49759714Y-47989687D01*
X49636279Y-48077268D01*
X49454136Y-48150426D01*
X49264956Y-48166707D01*
X49079536Y-48129042D01*
X48908675Y-48040359D01*
X48763171Y-47903588D01*
X48707757Y-47825381D01*
X48633964Y-47657146D01*
X48600551Y-47469102D01*
X48605840Y-47355426D01*
X48858486Y-47355426D01*
X48864852Y-47511144D01*
X48916769Y-47649740D01*
X49013055Y-47779476D01*
X49135702Y-47860782D01*
X49272570Y-47894346D01*
X49411523Y-47880855D01*
X49540422Y-47820999D01*
X49647129Y-47715464D01*
X49705964Y-47605006D01*
X49742110Y-47440011D01*
X49717738Y-47288776D01*
X49632123Y-47147184D01*
X49623560Y-47137233D01*
X49493835Y-47028677D01*
X49351586Y-46978591D01*
X49204905Y-46987721D01*
X49061883Y-47056813D01*
X49028901Y-47082485D01*
X48913214Y-47212311D01*
X48858486Y-47355426D01*
X48605840Y-47355426D01*
X48609212Y-47282941D01*
X48653879Y-47135995D01*
X48764397Y-46962842D01*
X48903515Y-46837286D01*
X49062459Y-46757412D01*
X49232458Y-46721309D01*
X49351586Y-46725288D01*
X49404738Y-46727063D01*
X49570529Y-46772761D01*
G37*
G36*
X48284890Y-40554566D02*
G01*
X48283642Y-40811027D01*
X48279845Y-41006883D01*
X48273413Y-41143888D01*
X48264264Y-41223796D01*
X48252314Y-41248361D01*
X48251819Y-41248231D01*
X48238854Y-41212616D01*
X48228290Y-41116301D01*
X48220226Y-40960955D01*
X48214762Y-40748242D01*
X48212814Y-40598149D01*
X48206880Y-39959091D01*
X47582801Y-39959091D01*
X47574326Y-40559767D01*
X47565852Y-41160442D01*
X48035258Y-41160442D01*
X48035258Y-40910811D01*
X48038603Y-40774746D01*
X48049331Y-40694120D01*
X48068479Y-40662288D01*
X48074263Y-40661170D01*
X48093622Y-40679601D01*
X48104860Y-40740004D01*
X48108874Y-40850022D01*
X48108067Y-40949806D01*
X48102867Y-41238452D01*
X47504791Y-41256314D01*
X47504791Y-39849877D01*
X48284890Y-39849877D01*
X48284890Y-40554566D01*
G37*
G36*
X50001106Y-45548816D02*
G01*
X49509644Y-45729307D01*
X49344879Y-45790639D01*
X49200528Y-45845926D01*
X49086866Y-45891108D01*
X49014168Y-45922126D01*
X48992893Y-45933469D01*
X49012237Y-45951489D01*
X49081454Y-45987019D01*
X49191798Y-46036147D01*
X49334526Y-46094962D01*
X49484355Y-46153291D01*
X50001106Y-46349444D01*
X50001106Y-46647962D01*
X49821683Y-46576522D01*
X49729254Y-46540324D01*
X49593547Y-46487956D01*
X49429695Y-46425221D01*
X49252831Y-46357924D01*
X49163738Y-46324185D01*
X48999514Y-46260482D01*
X48854012Y-46200997D01*
X48738176Y-46150443D01*
X48662949Y-46113531D01*
X48641072Y-46099145D01*
X48610812Y-46037137D01*
X48598398Y-45947359D01*
X48604279Y-45857079D01*
X48628904Y-45793565D01*
X48635934Y-45786619D01*
X48675399Y-45767048D01*
X48764461Y-45729230D01*
X48894244Y-45676729D01*
X49055872Y-45613105D01*
X49240469Y-45541923D01*
X49338022Y-45504832D01*
X50001106Y-45253896D01*
X50001106Y-45548816D01*
G37*
G36*
X52583311Y-42339692D02*
G01*
X52695742Y-42364212D01*
X53007590Y-42473363D01*
X53283047Y-42628792D01*
X53518212Y-42825666D01*
X53709184Y-43059153D01*
X53852063Y-43324419D01*
X53942949Y-43616632D01*
X53977940Y-43930958D01*
X53978193Y-43953194D01*
X53968370Y-44188455D01*
X53934038Y-44376869D01*
X53871871Y-44530292D01*
X53780300Y-44658616D01*
X53642575Y-44768516D01*
X53472675Y-44834051D01*
X53283959Y-44853536D01*
X53089785Y-44825285D01*
X52935638Y-44765201D01*
X52831388Y-44689873D01*
X52712566Y-44568678D01*
X52588718Y-44413309D01*
X52469390Y-44235459D01*
X52389714Y-44096451D01*
X52245063Y-43856223D01*
X52095343Y-43673422D01*
X51935784Y-43543071D01*
X51789541Y-43470047D01*
X51597446Y-43422238D01*
X51386045Y-43408512D01*
X51186647Y-43430347D01*
X51148638Y-43439753D01*
X51006592Y-43502736D01*
X50864064Y-43604909D01*
X50744382Y-43727772D01*
X50696085Y-43798626D01*
X50652932Y-43864459D01*
X50630148Y-43877583D01*
X50627575Y-43844225D01*
X50645055Y-43770610D01*
X50682430Y-43662966D01*
X50700703Y-43617134D01*
X50827042Y-43377312D01*
X50987763Y-43189456D01*
X51183511Y-43053143D01*
X51414927Y-42967952D01*
X51682658Y-42933459D01*
X51744643Y-42932623D01*
X51970997Y-42949906D01*
X52169916Y-43002962D01*
X52350115Y-43097198D01*
X52520313Y-43238020D01*
X52689226Y-43430835D01*
X52805008Y-43590326D01*
X52894255Y-43715063D01*
X52982120Y-43828342D01*
X53056365Y-43914837D01*
X53092251Y-43950052D01*
X53200069Y-44013303D01*
X53305880Y-44027425D01*
X53394998Y-43991314D01*
X53413100Y-43974140D01*
X53457669Y-43887597D01*
X53458425Y-43771821D01*
X53414577Y-43623097D01*
X53325338Y-43437713D01*
X53283344Y-43363666D01*
X53098543Y-43103213D01*
X52882515Y-42894497D01*
X52640654Y-42738728D01*
X52378359Y-42637114D01*
X52101025Y-42590863D01*
X51814050Y-42601182D01*
X51522830Y-42669280D01*
X51232763Y-42796366D01*
X51100953Y-42875130D01*
X50952826Y-42971510D01*
X51146031Y-42789259D01*
X51400394Y-42588774D01*
X51678494Y-42441602D01*
X51973140Y-42349716D01*
X52277143Y-42315089D01*
X52583311Y-42339692D01*
G37*
G36*
X50319542Y-48001264D02*
G01*
X50397124Y-48074527D01*
X50436081Y-48178471D01*
X50437961Y-48209356D01*
X50420118Y-48301391D01*
X50375137Y-48383835D01*
X50315839Y-48440529D01*
X50255045Y-48455311D01*
X50245167Y-48452368D01*
X50228152Y-48438150D01*
X50256769Y-48433422D01*
X50313221Y-48407751D01*
X50358182Y-48361607D01*
X50402169Y-48255293D01*
X50396042Y-48150421D01*
X50346869Y-48062282D01*
X50261718Y-48006169D01*
X50188330Y-47994103D01*
X50083433Y-48018724D01*
X50011441Y-48082493D01*
X49974472Y-48170276D01*
X49974645Y-48266935D01*
X50014077Y-48357335D01*
X50094888Y-48426340D01*
X50125922Y-48440025D01*
X50155574Y-48454544D01*
X50124377Y-48459658D01*
X50123560Y-48459699D01*
X50068881Y-48440210D01*
X50006545Y-48389942D01*
X49949586Y-48289442D01*
X49940340Y-48175117D01*
X49978534Y-48069370D01*
X50010918Y-48030747D01*
X50110854Y-47972855D01*
X50218924Y-47965201D01*
X50319542Y-48001264D01*
G37*
G36*
X50001106Y-40130713D02*
G01*
X48596929Y-40130713D01*
X48596929Y-39849877D01*
X50001106Y-39849877D01*
X50001106Y-40130713D01*
G37*
%TO.C,U203*%
X116380000Y-67040000D02*
X113950000Y-67040000D01*
X114620000Y-70110000D02*
X116380000Y-70110000D01*
%TO.C,C202*%
X127360000Y-67442164D02*
X127360000Y-67657836D01*
X126640000Y-67442164D02*
X126640000Y-67657836D01*
%TO.C,R201*%
X112227500Y-60372742D02*
X112227500Y-60847258D01*
X113272500Y-60372742D02*
X113272500Y-60847258D01*
%TO.C,F101*%
X79797936Y-77090000D02*
X81002064Y-77090000D01*
X79797936Y-78910000D02*
X81002064Y-78910000D01*
%TO.C,R203*%
X128120000Y-67703641D02*
X128120000Y-67396359D01*
X128880000Y-67703641D02*
X128880000Y-67396359D01*
%TO.C,C301*%
X85685000Y-63790000D02*
X83815000Y-63790000D01*
X85685000Y-67700000D02*
X85685000Y-63790000D01*
X83815000Y-63790000D02*
X83815000Y-67700000D01*
%TO.C,R703*%
X105253359Y-59352000D02*
X105560641Y-59352000D01*
X105253359Y-60112000D02*
X105560641Y-60112000D01*
%TO.C,J201*%
X54500000Y-51050000D02*
X54500000Y-30950000D01*
X132500000Y-30950000D02*
X132500000Y-51050000D01*
X54500000Y-30950000D02*
X132500000Y-30950000D01*
X132500000Y-51050000D02*
X54500000Y-51050000D01*
%TO.C,J901*%
X111890000Y-92210000D02*
X119190000Y-92210000D01*
X119190000Y-92210000D02*
X119190000Y-93610000D01*
X122810000Y-92210000D02*
X122810000Y-93610000D01*
X130110000Y-92210000D02*
X122810000Y-92210000D01*
X121000000Y-82390000D02*
X111890000Y-82390000D01*
X111650000Y-82150000D02*
X111650000Y-85000000D01*
X119190000Y-93610000D02*
X121000000Y-93610000D01*
X122810000Y-93610000D02*
X121000000Y-93610000D01*
X114500000Y-82150000D02*
X111650000Y-82150000D01*
X121000000Y-82390000D02*
X130110000Y-82390000D01*
X130110000Y-82390000D02*
X130110000Y-92210000D01*
X111890000Y-82390000D02*
X111890000Y-92210000D01*
%TO.C,D904*%
X136487500Y-84735000D02*
X138772500Y-84735000D01*
X138772500Y-84735000D02*
X138772500Y-83265000D01*
X138772500Y-83265000D02*
X136487500Y-83265000D01*
%TO.C,R403*%
X134381000Y-40403641D02*
X134381000Y-40096359D01*
X135141000Y-40403641D02*
X135141000Y-40096359D01*
%TO.C,U202*%
X122120000Y-70110000D02*
X123880000Y-70110000D01*
X123880000Y-67040000D02*
X121450000Y-67040000D01*
%TO.C,R204*%
X135180800Y-49473641D02*
X135180800Y-49166359D01*
X134420800Y-49473641D02*
X134420800Y-49166359D01*
%TO.C,R905*%
X134917500Y-84153641D02*
X134917500Y-83846359D01*
X134157500Y-84153641D02*
X134157500Y-83846359D01*
%TO.C,R301*%
X134370000Y-44846359D02*
X134370000Y-45153641D01*
X135130000Y-44846359D02*
X135130000Y-45153641D01*
%TO.C,R804*%
X72130000Y-61096359D02*
X72130000Y-61403641D01*
X71370000Y-61096359D02*
X71370000Y-61403641D01*
%TO.C,U701*%
X109310000Y-64500000D02*
X109310000Y-62550000D01*
X104190000Y-64500000D02*
X104190000Y-67950000D01*
X109310000Y-64500000D02*
X109310000Y-66450000D01*
X104190000Y-64500000D02*
X104190000Y-62550000D01*
%TO.C,D903*%
X138985000Y-79015000D02*
X136700000Y-79015000D01*
X136700000Y-80485000D02*
X138985000Y-80485000D01*
X138985000Y-80485000D02*
X138985000Y-79015000D01*
%TO.C,R702*%
X102527000Y-67385641D02*
X102527000Y-67078359D01*
X103287000Y-67385641D02*
X103287000Y-67078359D01*
%TO.C,R801*%
X56953641Y-61220000D02*
X56646359Y-61220000D01*
X56953641Y-61980000D02*
X56646359Y-61980000D01*
%TO.C,R205*%
X135167500Y-53893641D02*
X135167500Y-53586359D01*
X134407500Y-53893641D02*
X134407500Y-53586359D01*
%TO.C,BT801*%
X72450000Y-92500000D02*
X69550000Y-92500000D01*
X69550000Y-92500000D02*
X69550000Y-89700000D01*
X72650000Y-82200000D02*
X72650000Y-76700000D01*
X72450000Y-92500000D02*
X72550000Y-92500000D01*
X69650000Y-76700000D02*
X69650000Y-79400000D01*
X72650000Y-76700000D02*
X69650000Y-76700000D01*
X72650000Y-86800000D02*
X72650000Y-92500000D01*
X56157817Y-86932527D02*
G75*
G03*
X71050000Y-87200000I7492183J2432527D01*
G01*
X71187058Y-82219048D02*
G75*
G03*
X56150001Y-82100000I-7537058J-2280952D01*
G01*
%TO.C,D202*%
X136052500Y-53015000D02*
X136052500Y-54485000D01*
X136052500Y-54485000D02*
X138337500Y-54485000D01*
X138337500Y-53015000D02*
X136052500Y-53015000D01*
%TO.C,C201*%
X113485000Y-64371252D02*
X113485000Y-63848748D01*
X112015000Y-64371252D02*
X112015000Y-63848748D01*
%TO.C,R904*%
X130370000Y-76653641D02*
X130370000Y-76346359D01*
X131130000Y-76653641D02*
X131130000Y-76346359D01*
%TO.C,Q901*%
X127750000Y-74690000D02*
X128400000Y-74690000D01*
X127750000Y-77810000D02*
X129425000Y-77810000D01*
X127750000Y-77810000D02*
X127100000Y-77810000D01*
X127750000Y-74690000D02*
X127100000Y-74690000D01*
%TO.C,R803*%
X71370000Y-58903641D02*
X71370000Y-58596359D01*
X72130000Y-58903641D02*
X72130000Y-58596359D01*
%TO.C,U301*%
X86900000Y-60090000D02*
X92910000Y-60090000D01*
X92910000Y-60090000D02*
X92910000Y-61350000D01*
X92910000Y-66910000D02*
X92910000Y-65650000D01*
X89150000Y-66910000D02*
X92910000Y-66910000D01*
%TO.C,C701*%
X101765000Y-61238748D02*
X101765000Y-61761252D01*
X103235000Y-61238748D02*
X103235000Y-61761252D01*
%TO.C,U501*%
X50650000Y-75350000D02*
X75650000Y-75350000D01*
X75650000Y-75350000D02*
X75650000Y-52350000D01*
X75650000Y-52350000D02*
X50650000Y-52350000D01*
X50650000Y-52350000D02*
X50650000Y-75350000D01*
X54420000Y-60740000D02*
X54420000Y-62340000D01*
X55420000Y-65140000D02*
X54420000Y-65140000D01*
X51420000Y-66740000D02*
X51420000Y-66640000D01*
X51420000Y-60740000D02*
X54420000Y-60740000D01*
X54420000Y-66740000D02*
X51420000Y-66740000D01*
X51420000Y-66640000D02*
X51420000Y-60740000D01*
X54420000Y-62340000D02*
X55420000Y-62340000D01*
X55420000Y-62340000D02*
X55420000Y-65140000D01*
X54420000Y-65140000D02*
X54420000Y-66740000D01*
%TD*%
M02*
