%TF.GenerationSoftware,KiCad,Pcbnew,6.0.8-f2edbf62ab~116~ubuntu20.04.1*%
%TF.CreationDate,2022-10-28T14:46:09-03:00*%
%TF.ProjectId,+puntosV2,2b70756e-746f-4735-9632-2e6b69636164,rev?*%
%TF.SameCoordinates,Original*%
%TF.FileFunction,Soldermask,Bot*%
%TF.FilePolarity,Negative*%
%FSLAX46Y46*%
G04 Gerber Fmt 4.6, Leading zero omitted, Abs format (unit mm)*
G04 Created by KiCad (PCBNEW 6.0.8-f2edbf62ab~116~ubuntu20.04.1) date 2022-10-28 14:46:09*
%MOMM*%
%LPD*%
G01*
G04 APERTURE LIST*
G04 Aperture macros list*
%AMRoundRect*
0 Rectangle with rounded corners*
0 $1 Rounding radius*
0 $2 $3 $4 $5 $6 $7 $8 $9 X,Y pos of 4 corners*
0 Add a 4 corners polygon primitive as box body*
4,1,4,$2,$3,$4,$5,$6,$7,$8,$9,$2,$3,0*
0 Add four circle primitives for the rounded corners*
1,1,$1+$1,$2,$3*
1,1,$1+$1,$4,$5*
1,1,$1+$1,$6,$7*
1,1,$1+$1,$8,$9*
0 Add four rect primitives between the rounded corners*
20,1,$1+$1,$2,$3,$4,$5,0*
20,1,$1+$1,$4,$5,$6,$7,0*
20,1,$1+$1,$6,$7,$8,$9,0*
20,1,$1+$1,$8,$9,$2,$3,0*%
G04 Aperture macros list end*
%ADD10RoundRect,0.250001X-1.099999X-1.399999X1.099999X-1.399999X1.099999X1.399999X-1.099999X1.399999X0*%
%ADD11O,2.700000X3.300000*%
%ADD12C,3.200000*%
%ADD13R,3.500000X3.500000*%
%ADD14C,3.500000*%
%ADD15C,1.600000*%
%ADD16C,0.800000*%
%ADD17C,5.400000*%
%ADD18C,1.524000*%
G04 APERTURE END LIST*
D10*
%TO.C,J101*%
X78900000Y-84750000D03*
D11*
X83100000Y-84750000D03*
X78900000Y-90250000D03*
X83100000Y-90250000D03*
%TD*%
D10*
%TO.C,J601*%
X102900000Y-84750000D03*
D11*
X107100000Y-84750000D03*
X102900000Y-90250000D03*
X107100000Y-90250000D03*
%TD*%
D12*
%TO.C,J201*%
X66145000Y-41000000D03*
X121755000Y-41000000D03*
D13*
X57500000Y-41000000D03*
D14*
X129500000Y-41000000D03*
%TD*%
D10*
%TO.C,J901*%
X114700000Y-84750000D03*
D11*
X118900000Y-84750000D03*
X123100000Y-84750000D03*
X127300000Y-84750000D03*
X114700000Y-90250000D03*
X118900000Y-90250000D03*
X123100000Y-90250000D03*
X127300000Y-90250000D03*
%TD*%
D15*
%TO.C,BT801*%
X67350000Y-84500000D03*
X59950000Y-84500000D03*
%TD*%
D16*
%TO.C,H4*%
X48568109Y-35431891D03*
X52025000Y-34000000D03*
X47975000Y-34000000D03*
X48568109Y-32568109D03*
D17*
X50000000Y-34000000D03*
D16*
X50000000Y-31975000D03*
X50000000Y-36025000D03*
X51431891Y-32568109D03*
X51431891Y-35431891D03*
%TD*%
%TO.C,H3*%
X47975000Y-90000000D03*
X50000000Y-87975000D03*
X50000000Y-92025000D03*
X48568109Y-91431891D03*
D17*
X50000000Y-90000000D03*
D16*
X48568109Y-88568109D03*
X51431891Y-88568109D03*
X52025000Y-90000000D03*
X51431891Y-91431891D03*
%TD*%
D18*
%TO.C,U401*%
X84060000Y-72100000D03*
X86600000Y-72100000D03*
X89140000Y-72100000D03*
X91680000Y-72100000D03*
X94220000Y-72100000D03*
X96760000Y-72100000D03*
X99300000Y-72100000D03*
X101840000Y-72100000D03*
X104380000Y-72100000D03*
X106920000Y-72100000D03*
X109460000Y-72100000D03*
X112000000Y-72100000D03*
X114540000Y-72100000D03*
X117080000Y-72100000D03*
X119620000Y-72100000D03*
X122160000Y-72100000D03*
X124700000Y-72100000D03*
X127240000Y-72100000D03*
X129780000Y-72100000D03*
X132320000Y-72100000D03*
X132320000Y-56100000D03*
X129780000Y-56100000D03*
X127240000Y-56100000D03*
X124700000Y-56100000D03*
X122160000Y-56100000D03*
X119620000Y-56100000D03*
X117080000Y-56100000D03*
X114540000Y-56100000D03*
X112000000Y-56100000D03*
X109460000Y-56100000D03*
X106920000Y-56100000D03*
X104380000Y-56100000D03*
X101840000Y-56100000D03*
X99300000Y-56100000D03*
X96760000Y-56100000D03*
X94220000Y-56100000D03*
X91680000Y-56100000D03*
X89140000Y-56100000D03*
X86600000Y-56100000D03*
X84060000Y-56100000D03*
%TD*%
D16*
%TO.C,H2*%
X138431891Y-91431891D03*
X139025000Y-90000000D03*
X135568109Y-88568109D03*
X137000000Y-87975000D03*
X137000000Y-92025000D03*
X138431891Y-88568109D03*
D17*
X137000000Y-90000000D03*
D16*
X134975000Y-90000000D03*
X135568109Y-91431891D03*
%TD*%
D18*
%TO.C,U501*%
X57050000Y-53680000D03*
X59590000Y-53680000D03*
X62130000Y-53680000D03*
X64670000Y-53680000D03*
X67210000Y-53680000D03*
X69750000Y-53680000D03*
X69750000Y-74000000D03*
X67210000Y-74000000D03*
X64670000Y-74000000D03*
X62130000Y-74000000D03*
X59590000Y-74000000D03*
X57050000Y-74000000D03*
%TD*%
D16*
%TO.C,H1*%
X139025000Y-34000000D03*
D17*
X137000000Y-34000000D03*
D16*
X137000000Y-36025000D03*
X137000000Y-31975000D03*
X135568109Y-35431891D03*
X138431891Y-35431891D03*
X135568109Y-32568109D03*
X134975000Y-34000000D03*
X138431891Y-32568109D03*
%TD*%
M02*
