M48
; DRILL file {KiCad 6.0.8-f2edbf62ab~116~ubuntu20.04.1} date vie 28 oct 2022 14:45:40
; FORMAT={-:-/ absolute / metric / decimal}
; #@! TF.CreationDate,2022-10-28T14:45:40-03:00
; #@! TF.GenerationSoftware,Kicad,Pcbnew,6.0.8-f2edbf62ab~116~ubuntu20.04.1
; #@! TF.FileFunction,MixedPlating,1,2
FMAT,2
METRIC
; #@! TA.AperFunction,Plated,PTH,ViaDrill
T1C0.400
; #@! TA.AperFunction,Plated,PTH,ComponentDrill
T2C0.500
; #@! TA.AperFunction,Plated,PTH,ComponentDrill
T3C0.510
; #@! TA.AperFunction,Plated,PTH,ComponentDrill
T4C0.762
; #@! TA.AperFunction,Plated,PTH,ComponentDrill
T5C1.400
; #@! TA.AperFunction,Plated,PTH,ComponentDrill
T6C1.600
; #@! TA.AperFunction,Plated,PTH,ComponentDrill
T7C2.000
; #@! TA.AperFunction,Plated,PTH,ComponentDrill
T8C2.700
; #@! TA.AperFunction,NonPlated,NPTH,ComponentDrill
T9C3.200
%
G90
G05
T1
X63.7Y-69.8
X64.6Y-68.8
X72.75Y-58.25
X72.75Y-62.0
X72.75Y-72.5
X76.3Y-57.5
X77.75Y-56.0
X77.75Y-58.5
X77.75Y-60.0
X77.75Y-63.75
X77.75Y-66.5
X79.0Y-71.3
X83.2Y-67.4
X83.7Y-62.0
X86.2Y-61.1
X86.4Y-67.4
X87.9Y-59.7
X89.0Y-65.8
X89.8Y-61.1
X92.0Y-61.1
X92.0Y-64.5
X96.76Y-58.49
X98.0Y-57.5
X99.1Y-58.4
X101.5Y-62.5
X101.9Y-58.4
X103.5Y-62.5
X106.25Y-68.25
X107.4Y-74.0
X108.248Y-53.252
X108.25Y-58.5
X108.5Y-65.5
X108.5Y-68.25
X111.25Y-67.25
X111.6Y-59.8
X111.6Y-63.2
X111.75Y-65.5
X112.25Y-67.75
X115.7Y-59.8
X121.0Y-54.2
X123.25Y-65.5
X127.7Y-79.0
X128.7Y-75.9
X130.75Y-75.25
X131.1Y-54.2
X131.5Y-79.5
X133.7Y-64.6
X133.7Y-66.1
X134.75Y-73.5
X134.75Y-74.75
T2
X47.975Y-34.0
X47.975Y-90.0
X48.568Y-32.568
X48.568Y-35.432
X48.568Y-88.568
X48.568Y-91.432
X50.0Y-31.975
X50.0Y-36.025
X50.0Y-87.975
X50.0Y-92.025
X51.432Y-32.568
X51.432Y-35.432
X51.432Y-88.568
X51.432Y-91.432
X52.025Y-34.0
X52.025Y-90.0
X134.975Y-34.0
X134.975Y-90.0
X135.568Y-32.568
X135.568Y-35.432
X135.568Y-88.568
X135.568Y-91.432
X137.0Y-31.975
X137.0Y-36.025
X137.0Y-87.975
X137.0Y-92.025
X138.432Y-32.568
X138.432Y-35.432
X138.432Y-88.568
X138.432Y-91.432
X139.025Y-34.0
X139.025Y-90.0
T3
X118.62Y-61.73
X118.62Y-63.0
X118.62Y-64.27
X121.16Y-61.73
X121.16Y-63.0
X121.16Y-64.27
T4
X57.05Y-53.68
X57.05Y-74.0
X59.59Y-53.68
X59.59Y-74.0
X62.13Y-53.68
X62.13Y-74.0
X64.67Y-53.68
X64.67Y-74.0
X67.21Y-53.68
X67.21Y-74.0
X69.75Y-53.68
X69.75Y-74.0
X84.06Y-56.1
X84.06Y-72.1
X86.6Y-56.1
X86.6Y-72.1
X89.14Y-56.1
X89.14Y-72.1
X91.68Y-56.1
X91.68Y-72.1
X94.22Y-56.1
X94.22Y-72.1
X96.76Y-56.1
X96.76Y-72.1
X99.3Y-56.1
X99.3Y-72.1
X101.84Y-56.1
X101.84Y-72.1
X104.38Y-56.1
X104.38Y-72.1
X106.92Y-56.1
X106.92Y-72.1
X109.46Y-56.1
X109.46Y-72.1
X112.0Y-56.1
X112.0Y-72.1
X114.54Y-56.1
X114.54Y-72.1
X117.08Y-56.1
X117.08Y-72.1
X119.62Y-56.1
X119.62Y-72.1
X122.16Y-56.1
X122.16Y-72.1
X124.7Y-56.1
X124.7Y-72.1
X127.24Y-56.1
X127.24Y-72.1
X129.78Y-56.1
X129.78Y-72.1
X132.32Y-56.1
X132.32Y-72.1
T5
X78.9Y-84.75
X78.9Y-90.25
X83.1Y-84.75
X83.1Y-90.25
X102.9Y-84.75
X102.9Y-90.25
X107.1Y-84.75
X107.1Y-90.25
X114.7Y-84.75
X114.7Y-90.25
X118.9Y-84.75
X118.9Y-90.25
X123.1Y-84.75
X123.1Y-90.25
X127.3Y-84.75
X127.3Y-90.25
T6
X59.95Y-84.5
X67.35Y-84.5
T7
X57.5Y-41.0
X129.5Y-41.0
T8
X50.0Y-34.0
X50.0Y-90.0
X137.0Y-34.0
X137.0Y-90.0
T9
X66.145Y-41.0
X121.755Y-41.0
T0
M30
