%TF.GenerationSoftware,KiCad,Pcbnew,6.0.8-f2edbf62ab~116~ubuntu20.04.1*%
%TF.CreationDate,2022-10-28T14:46:09-03:00*%
%TF.ProjectId,+puntosV2,2b70756e-746f-4735-9632-2e6b69636164,rev?*%
%TF.SameCoordinates,Original*%
%TF.FileFunction,Paste,Top*%
%TF.FilePolarity,Positive*%
%FSLAX46Y46*%
G04 Gerber Fmt 4.6, Leading zero omitted, Abs format (unit mm)*
G04 Created by KiCad (PCBNEW 6.0.8-f2edbf62ab~116~ubuntu20.04.1) date 2022-10-28 14:46:09*
%MOMM*%
%LPD*%
G01*
G04 APERTURE LIST*
G04 Aperture macros list*
%AMRoundRect*
0 Rectangle with rounded corners*
0 $1 Rounding radius*
0 $2 $3 $4 $5 $6 $7 $8 $9 X,Y pos of 4 corners*
0 Add a 4 corners polygon primitive as box body*
4,1,4,$2,$3,$4,$5,$6,$7,$8,$9,$2,$3,0*
0 Add four circle primitives for the rounded corners*
1,1,$1+$1,$2,$3*
1,1,$1+$1,$4,$5*
1,1,$1+$1,$6,$7*
1,1,$1+$1,$8,$9*
0 Add four rect primitives between the rounded corners*
20,1,$1+$1,$2,$3,$4,$5,0*
20,1,$1+$1,$4,$5,$6,$7,0*
20,1,$1+$1,$6,$7,$8,$9,0*
20,1,$1+$1,$8,$9,$2,$3,0*%
G04 Aperture macros list end*
%ADD10RoundRect,0.218750X-0.218750X-0.256250X0.218750X-0.256250X0.218750X0.256250X-0.218750X0.256250X0*%
%ADD11RoundRect,0.250000X0.250000X0.475000X-0.250000X0.475000X-0.250000X-0.475000X0.250000X-0.475000X0*%
%ADD12RoundRect,0.135000X0.185000X-0.135000X0.185000X0.135000X-0.185000X0.135000X-0.185000X-0.135000X0*%
%ADD13RoundRect,0.150000X0.587500X0.150000X-0.587500X0.150000X-0.587500X-0.150000X0.587500X-0.150000X0*%
%ADD14RoundRect,0.250000X0.475000X-0.250000X0.475000X0.250000X-0.475000X0.250000X-0.475000X-0.250000X0*%
%ADD15R,1.200000X1.600000*%
%ADD16RoundRect,0.135000X-0.135000X-0.185000X0.135000X-0.185000X0.135000X0.185000X-0.135000X0.185000X0*%
%ADD17RoundRect,0.135000X-0.185000X0.135000X-0.185000X-0.135000X0.185000X-0.135000X0.185000X0.135000X0*%
%ADD18RoundRect,0.135000X0.135000X0.185000X-0.135000X0.185000X-0.135000X-0.185000X0.135000X-0.185000X0*%
%ADD19RoundRect,0.200000X0.200000X0.275000X-0.200000X0.275000X-0.200000X-0.275000X0.200000X-0.275000X0*%
%ADD20RoundRect,0.250001X-0.704999X-0.679999X0.704999X-0.679999X0.704999X0.679999X-0.704999X0.679999X0*%
%ADD21RoundRect,0.175000X-1.250000X-0.175000X1.250000X-0.175000X1.250000X0.175000X-1.250000X0.175000X0*%
%ADD22RoundRect,0.150000X-0.875000X-0.150000X0.875000X-0.150000X0.875000X0.150000X-0.875000X0.150000X0*%
%ADD23R,2.000000X0.650000*%
%ADD24RoundRect,0.140000X-0.170000X0.140000X-0.170000X-0.140000X0.170000X-0.140000X0.170000X0.140000X0*%
%ADD25RoundRect,0.200000X-0.275000X0.200000X-0.275000X-0.200000X0.275000X-0.200000X0.275000X0.200000X0*%
%ADD26RoundRect,0.250000X-0.375000X-0.625000X0.375000X-0.625000X0.375000X0.625000X-0.375000X0.625000X0*%
%ADD27RoundRect,0.250000X-0.425000X0.450000X-0.425000X-0.450000X0.425000X-0.450000X0.425000X0.450000X0*%
%ADD28RoundRect,0.218750X0.218750X0.256250X-0.218750X0.256250X-0.218750X-0.256250X0.218750X-0.256250X0*%
%ADD29RoundRect,0.150000X0.150000X-0.825000X0.150000X0.825000X-0.150000X0.825000X-0.150000X-0.825000X0*%
%ADD30R,4.500000X4.000000*%
%ADD31R,2.000000X1.500000*%
%ADD32R,2.000000X3.800000*%
%ADD33RoundRect,0.250000X-0.475000X0.250000X-0.475000X-0.250000X0.475000X-0.250000X0.475000X0.250000X0*%
G04 APERTURE END LIST*
D10*
%TO.C,D901*%
X136712500Y-76000000D03*
X138287500Y-76000000D03*
%TD*%
D11*
%TO.C,C203*%
X128950000Y-64860000D03*
X127050000Y-64860000D03*
%TD*%
D12*
%TO.C,R906*%
X130750000Y-80510000D03*
X130750000Y-79490000D03*
%TD*%
%TO.C,R902*%
X134750000Y-72760000D03*
X134750000Y-71740000D03*
%TD*%
D13*
%TO.C,Q902*%
X128687500Y-80950000D03*
X128687500Y-79050000D03*
X126812500Y-80000000D03*
%TD*%
D14*
%TO.C,C302*%
X84758000Y-62377000D03*
X84758000Y-60477000D03*
%TD*%
D15*
%TO.C,SW102*%
X90250000Y-75750000D03*
X92750000Y-75750000D03*
X95250000Y-75750000D03*
X90250000Y-82250000D03*
X92750000Y-82250000D03*
X95250000Y-82250000D03*
%TD*%
D10*
%TO.C,D201*%
X136712500Y-49250000D03*
X138287500Y-49250000D03*
%TD*%
D16*
%TO.C,R401*%
X103240000Y-69750000D03*
X104260000Y-69750000D03*
%TD*%
D17*
%TO.C,R901*%
X134787500Y-75490000D03*
X134787500Y-76510000D03*
%TD*%
D18*
%TO.C,R601*%
X117010000Y-54250000D03*
X115990000Y-54250000D03*
%TD*%
%TO.C,R802*%
X57310000Y-63100000D03*
X56290000Y-63100000D03*
%TD*%
D17*
%TO.C,R701*%
X100000000Y-61490000D03*
X100000000Y-62510000D03*
%TD*%
D10*
%TO.C,D301*%
X136712500Y-45000000D03*
X138287500Y-45000000D03*
%TD*%
D11*
%TO.C,C801*%
X56950000Y-59250000D03*
X55050000Y-59250000D03*
%TD*%
D19*
%TO.C,R202*%
X128825000Y-69550000D03*
X127175000Y-69550000D03*
%TD*%
D20*
%TO.C,U201*%
X121030000Y-64110000D03*
X121030000Y-61890000D03*
X118750000Y-61890000D03*
X118750000Y-64110000D03*
D21*
X115740000Y-61095000D03*
X115740000Y-62365000D03*
X115740000Y-63635000D03*
X115740000Y-64905000D03*
X124040000Y-64905000D03*
X124040000Y-63635000D03*
X124040000Y-62365000D03*
X124040000Y-61095000D03*
%TD*%
D10*
%TO.C,D902*%
X136712500Y-72250000D03*
X138287500Y-72250000D03*
%TD*%
D15*
%TO.C,SW101*%
X90250000Y-85750000D03*
X92750000Y-85750000D03*
X95250000Y-85750000D03*
X90250000Y-92250000D03*
X92750000Y-92250000D03*
X95250000Y-92250000D03*
%TD*%
D22*
%TO.C,U801*%
X59663600Y-59297800D03*
X59663600Y-60567800D03*
X59663600Y-61837800D03*
X59663600Y-63107800D03*
X59663600Y-64377800D03*
X59663600Y-65647800D03*
X59663600Y-66917800D03*
X59663600Y-68187800D03*
X68963600Y-68187800D03*
X68963600Y-66917800D03*
X68963600Y-65647800D03*
X68963600Y-64377800D03*
X68963600Y-63107800D03*
X68963600Y-61837800D03*
X68963600Y-60567800D03*
X68963600Y-59297800D03*
%TD*%
D17*
%TO.C,R903*%
X134750000Y-79250000D03*
X134750000Y-80270000D03*
%TD*%
D10*
%TO.C,D401*%
X136712500Y-40250000D03*
X138287500Y-40250000D03*
%TD*%
D23*
%TO.C,U203*%
X113790000Y-67600000D03*
X113790000Y-68550000D03*
X113790000Y-69500000D03*
X117210000Y-69500000D03*
X117210000Y-68550000D03*
X117210000Y-67600000D03*
%TD*%
D24*
%TO.C,C202*%
X127000000Y-67070000D03*
X127000000Y-68030000D03*
%TD*%
D25*
%TO.C,R201*%
X112750000Y-59785000D03*
X112750000Y-61435000D03*
%TD*%
D26*
%TO.C,F101*%
X79000000Y-78000000D03*
X81800000Y-78000000D03*
%TD*%
D12*
%TO.C,R203*%
X128500000Y-68060000D03*
X128500000Y-67040000D03*
%TD*%
D27*
%TO.C,C301*%
X84750000Y-64750000D03*
X84750000Y-67450000D03*
%TD*%
D16*
%TO.C,R703*%
X104897000Y-59732000D03*
X105917000Y-59732000D03*
%TD*%
D28*
%TO.C,D904*%
X138075000Y-84000000D03*
X136500000Y-84000000D03*
%TD*%
D12*
%TO.C,R403*%
X134761000Y-40760000D03*
X134761000Y-39740000D03*
%TD*%
D23*
%TO.C,U202*%
X121290000Y-67600000D03*
X121290000Y-68550000D03*
X121290000Y-69500000D03*
X124710000Y-69500000D03*
X124710000Y-68550000D03*
X124710000Y-67600000D03*
%TD*%
D12*
%TO.C,R204*%
X134800800Y-49830000D03*
X134800800Y-48810000D03*
%TD*%
%TO.C,R905*%
X134537500Y-84510000D03*
X134537500Y-83490000D03*
%TD*%
D17*
%TO.C,R301*%
X134750000Y-44490000D03*
X134750000Y-45510000D03*
%TD*%
%TO.C,R804*%
X71750000Y-60740000D03*
X71750000Y-61760000D03*
%TD*%
D29*
%TO.C,U701*%
X104845000Y-66975000D03*
X106115000Y-66975000D03*
X107385000Y-66975000D03*
X108655000Y-66975000D03*
X108655000Y-62025000D03*
X107385000Y-62025000D03*
X106115000Y-62025000D03*
X104845000Y-62025000D03*
%TD*%
D28*
%TO.C,D903*%
X138287500Y-79750000D03*
X136712500Y-79750000D03*
%TD*%
D12*
%TO.C,R702*%
X102907000Y-67742000D03*
X102907000Y-66722000D03*
%TD*%
D18*
%TO.C,R801*%
X57310000Y-61600000D03*
X56290000Y-61600000D03*
%TD*%
D12*
%TO.C,R205*%
X134787500Y-54250000D03*
X134787500Y-53230000D03*
%TD*%
D30*
%TO.C,BT801*%
X72250000Y-84500000D03*
X55050000Y-84500000D03*
%TD*%
D10*
%TO.C,D202*%
X136750000Y-53750000D03*
X138325000Y-53750000D03*
%TD*%
D14*
%TO.C,C201*%
X112750000Y-65060000D03*
X112750000Y-63160000D03*
%TD*%
D12*
%TO.C,R904*%
X130750000Y-77010000D03*
X130750000Y-75990000D03*
%TD*%
D13*
%TO.C,Q901*%
X128687500Y-77200000D03*
X128687500Y-75300000D03*
X126812500Y-76250000D03*
%TD*%
D12*
%TO.C,R803*%
X71750000Y-59260000D03*
X71750000Y-58240000D03*
%TD*%
D31*
%TO.C,U301*%
X87850000Y-61200000D03*
D32*
X94150000Y-63500000D03*
D31*
X87850000Y-63500000D03*
X87850000Y-65800000D03*
%TD*%
D33*
%TO.C,C701*%
X102500000Y-60550000D03*
X102500000Y-62450000D03*
%TD*%
M02*
